<svg width="200" height="43" viewBox="0 0 200 43" fill="none" xmlns="http://www.w3.org/2000/svg">
<g clip-path="url(#clip0)">
<path d="M182.874 0.900391L141.574 42.2004H157.774L188.774 11.2004L199.074 21.5004V0.900391H182.874Z" fill="#FF5100"/>
<path d="M178.474 0.900391L168.074 11.2004L157.774 0.900391H178.474Z" fill="#042F66"/>
<path d="M162.274 42.2006L188.774 15.6006L199.074 25.9006V42.2006L188.774 31.8006L178.474 42.2006H162.274Z" fill="#042F66"/>
<path d="M10.3743 42.2004V20.5004L22.5743 42.1004H34.4743L20.9743 20.1004L33.1743 0.900391H21.4743L10.3743 20.4004V0.900391H0.174316V42.2004H10.3743ZM35.8743 29.3004C36.2743 31.5004 36.8743 33.5004 37.8743 35.1004C38.7743 36.7004 39.9743 38.1004 41.3743 39.2004C42.7743 40.3004 44.2743 41.1004 45.9743 41.7004C47.6743 42.2004 49.5743 42.5004 51.4743 42.5004C53.8743 42.5004 55.9743 42.1004 57.8743 41.3004C59.7743 40.5004 61.4743 39.4004 62.9743 37.9004C64.0743 36.8004 64.8743 35.6004 65.4743 34.4004C66.0743 33.1004 66.4743 31.8004 66.6743 30.4004C66.8743 29.0004 67.0743 27.6004 67.0743 26.1004C67.0743 24.6004 67.1743 23.1004 67.0743 21.5004C67.0743 19.9004 67.0743 18.4004 67.0743 16.9004C67.0743 15.4004 66.8743 14.0004 66.6743 12.6004C66.4743 11.2004 66.0743 9.90039 65.4743 8.60039C64.8743 7.40039 64.0743 6.20039 62.9743 5.10039C61.4743 3.60039 59.7743 2.40039 57.8743 1.60039C55.9743 0.800391 53.8743 0.400391 51.4743 0.400391C49.4743 0.400391 47.6743 0.700391 45.9743 1.20039C44.2743 1.80039 42.6743 2.60039 41.2743 3.70039C39.8743 4.80039 38.7743 6.20039 37.7743 7.80039C36.8743 9.50039 36.1743 11.4004 35.7743 13.6004H45.8743C46.0743 12.8004 46.3743 12.1004 46.8743 11.4004C47.2743 10.7004 47.8743 10.2004 48.5743 9.80039C49.2743 9.40039 50.1743 9.20039 51.3743 9.20039C52.3743 9.20039 53.1743 9.40039 53.8743 9.70039C54.5743 10.0004 55.1743 10.5004 55.5743 11.0004C55.8743 11.3004 56.0743 11.7004 56.2743 12.1004C56.4743 12.5004 56.6743 13.1004 56.7743 13.9004C56.9743 14.6004 57.0743 15.6004 57.0743 16.9004H46.0743V25.7004H57.0743C56.9743 26.7004 56.9743 27.5004 56.8743 28.1004C56.7743 28.8004 56.6743 29.3004 56.4743 29.7004C56.3743 30.1004 56.1743 30.5004 55.9743 30.8004C55.7743 31.1004 55.6743 31.4004 55.4743 31.6004C55.0743 32.1004 54.4743 32.6004 53.7743 32.9004C53.0743 33.2004 52.2743 33.4004 51.2743 33.4004C50.1743 33.4004 49.2743 33.2004 48.4743 32.8004C47.7743 32.4004 47.1743 31.9004 46.7743 31.2004C46.3743 30.5004 45.9743 29.8004 45.7743 29.0004H35.8743V29.3004ZM106.974 42.2004L91.9743 0.900391H84.1743L69.1743 42.2004H79.7743L81.7743 36.1004H94.4743L96.3743 42.2004H106.974ZM91.7743 27.5004H84.5743L88.2743 16.5004L91.7743 27.5004ZM124.574 42.5004C126.774 42.5004 128.874 42.2004 130.674 41.6004C132.574 41.0004 134.174 40.2004 135.474 39.1004C136.874 38.0004 137.874 36.7004 138.674 35.1004C139.374 33.6004 139.774 31.8004 139.774 29.9004C139.774 28.5004 139.574 27.2004 139.074 26.1004C138.574 24.9004 137.974 23.9004 137.074 23.0004C136.274 22.1004 135.274 21.4004 134.174 20.9004C135.174 20.3004 135.974 19.6004 136.774 18.7004C137.474 17.8004 138.074 16.9004 138.574 15.8004C138.974 14.7004 139.274 13.5004 139.274 12.3004C139.274 10.5004 138.874 8.90039 138.174 7.50039C137.474 6.10039 136.474 4.80039 135.174 3.80039C133.874 2.80039 132.274 2.00039 130.574 1.40039C128.774 0.800391 126.874 0.600391 124.674 0.600391C122.674 0.600391 120.874 0.900391 119.174 1.40039C117.474 2.00039 115.874 2.80039 114.474 3.90039C113.074 5.00039 111.974 6.40039 110.974 8.00039C110.074 9.70039 109.374 11.6004 109.074 13.8004H119.174C119.374 13.0004 119.774 12.3004 120.174 11.6004C120.574 10.9004 121.174 10.3004 121.874 9.90039C122.574 9.50039 123.474 9.30039 124.674 9.30039C125.574 9.30039 126.374 9.50039 127.074 9.80039C127.774 10.1004 128.274 10.5004 128.674 11.1004C129.074 11.7004 129.274 12.3004 129.274 13.1004C129.274 14.3004 128.874 15.3004 128.074 16.0004C127.274 16.7004 126.174 17.1004 124.774 17.1004H119.174V25.3004H124.674C125.874 25.3004 126.774 25.5004 127.474 25.9004C128.174 26.3004 128.774 26.8004 129.074 27.4004C129.474 28.0004 129.574 28.8004 129.574 29.7004C129.574 30.5004 129.374 31.2004 128.974 31.8004C128.574 32.4004 128.074 32.9004 127.274 33.3004C126.474 33.6004 125.574 33.8004 124.474 33.9004C123.374 33.9004 122.474 33.7004 121.674 33.3004C120.974 32.9004 120.374 32.4004 119.974 31.7004C119.574 31.0004 119.174 30.3004 118.974 29.5004H108.874C109.274 31.7004 109.874 33.7004 110.874 35.3004C111.774 36.9004 112.974 38.3004 114.374 39.4004C115.774 40.5004 117.274 41.3004 119.074 41.9004C120.774 42.2004 122.574 42.5004 124.574 42.5004Z" fill="#042F66"/>
</g>
<defs>
<clipPath id="clip0">
<rect width="198.9" height="42" fill="white" transform="translate(0.174316 0.5)"/>
</clipPath>
</defs>
</svg>
