<svg width="33" height="33" viewBox="0 0 33 33" fill="none" xmlns="http://www.w3.org/2000/svg">
<g clip-path="url(#clip0)">
<path d="M26.9835 3.90742C26.9793 3.88893 26.9681 3.87434 26.9626 3.8569C26.9535 3.82695 26.9415 3.79804 26.927 3.77044C26.9103 3.73867 26.8902 3.70898 26.8673 3.68137C26.8488 3.65846 26.8285 3.6371 26.8064 3.61731C26.7796 3.59466 26.7501 3.57512 26.7189 3.55872C26.6926 3.54283 26.6647 3.52929 26.6358 3.51809C26.6012 3.50716 26.5652 3.49986 26.529 3.49622C26.5069 3.48971 26.4843 3.4845 26.4613 3.48085H23.7723C23.6348 1.62434 22.7733 0.280853 21.6613 0.280853C20.5494 0.280853 19.6879 1.62434 19.5504 3.48085H18.4389C18.3014 1.62434 17.44 0.280853 16.328 0.280853C15.216 0.280853 14.3546 1.62434 14.2171 3.48085H13.1056C12.9681 1.62434 12.1066 0.280853 10.9947 0.280853C9.88269 0.280853 9.02123 1.62434 8.88373 3.48085H7.77227C7.63477 1.62434 6.77332 0.280853 5.66134 0.280853C4.54936 0.280853 3.6879 1.62434 3.5504 3.48085H0.861336C0.566805 3.48085 0.328003 3.71966 0.328003 4.01419V31.7475C0.328003 32.0421 0.566805 32.2809 0.861336 32.2809H26.4613C26.7559 32.2809 26.9947 32.0421 26.9947 31.7475V30.1475H31.7947C31.9548 30.1475 32.1064 30.0754 32.2074 29.9514C32.3087 29.8272 32.3488 29.6644 32.3168 29.5074L26.9835 3.90742ZM21.6613 1.34752C22.0465 1.34752 22.584 2.16471 22.7025 3.48085H20.6223C20.7387 2.16471 21.2762 1.34752 21.6613 1.34752ZM16.328 1.34752C16.7132 1.34752 17.2507 2.16471 17.3692 3.48085H15.2889C15.4053 2.16471 15.9428 1.34752 16.328 1.34752ZM10.9947 1.34752C11.3798 1.34752 11.9173 2.16471 12.0358 3.48085H9.95561C10.072 2.16471 10.6095 1.34752 10.9947 1.34752ZM5.66134 1.34752C6.04649 1.34752 6.58399 2.16471 6.70248 3.48085H4.62227C4.73868 2.16471 5.27618 1.34752 5.66134 1.34752ZM1.39467 4.54752H3.5504C3.6879 6.40403 4.54936 7.74752 5.66134 7.74752C5.95587 7.74752 6.19467 7.50872 6.19467 7.21419C6.19467 6.91966 5.95587 6.68085 5.66134 6.68085C5.27618 6.68085 4.73868 5.86367 4.62019 4.54752H8.88373C9.02306 6.40403 9.88269 7.74752 10.9947 7.74752C11.2892 7.74752 11.528 7.50872 11.528 7.21419C11.528 6.91966 11.2892 6.68085 10.9947 6.68085C10.6095 6.68085 10.072 5.86367 9.95352 4.54752H14.2171C14.3564 6.40403 15.216 7.74752 16.328 7.74752C16.6225 7.74752 16.8613 7.50872 16.8613 7.21419C16.8613 6.91966 16.6225 6.68085 16.328 6.68085C15.9428 6.68085 15.4053 5.86367 15.2869 4.54752H19.5504C19.6897 6.40403 20.5494 7.74752 21.6613 7.74752C21.9559 7.74752 22.1947 7.50872 22.1947 7.21419C22.1947 6.91966 21.9559 6.68085 21.6613 6.68085C21.2762 6.68085 20.7387 5.86367 20.6202 4.54752H25.928V9.88085H1.39467V4.54752ZM25.928 31.2142H1.39467V10.9475H25.928V31.2142ZM26.9947 29.0809V9.18762L31.1392 29.0809H26.9947Z" fill="white"/>
<path d="M12.0613 19.4809H9.92799C9.63346 19.4809 9.39465 19.7197 9.39465 20.0142V22.1475C9.39465 22.4421 9.63346 22.6809 9.92799 22.6809H12.0613C12.3559 22.6809 12.5947 22.4421 12.5947 22.1475V20.0142C12.5947 19.7197 12.3559 19.4809 12.0613 19.4809ZM11.528 21.6142H10.4613V20.5475H11.528V21.6142Z" fill="white"/>
<path d="M17.3947 19.4809H15.2613C14.9668 19.4809 14.728 19.7197 14.728 20.0142V22.1475C14.728 22.4421 14.9668 22.6809 15.2613 22.6809H17.3947C17.6892 22.6809 17.928 22.4421 17.928 22.1475V20.0142C17.928 19.7197 17.6892 19.4809 17.3947 19.4809ZM16.8613 21.6142H15.7947V20.5475H16.8613V21.6142Z" fill="white"/>
<path d="M6.72801 19.4809H4.59467C4.30014 19.4809 4.06134 19.7197 4.06134 20.0142V22.1475C4.06134 22.4421 4.30014 22.6809 4.59467 22.6809H6.72801C7.02254 22.6809 7.26134 22.4421 7.26134 22.1475V20.0142C7.26134 19.7197 7.02254 19.4809 6.72801 19.4809ZM6.19467 21.6142H5.12801V20.5475H6.19467V21.6142Z" fill="white"/>
<path d="M12.0613 24.8142H9.92799C9.63346 24.8142 9.39465 25.053 9.39465 25.3475V27.4808C9.39465 27.7754 9.63346 28.0142 9.92799 28.0142H12.0613C12.3559 28.0142 12.5947 27.7754 12.5947 27.4808V25.3475C12.5947 25.053 12.3559 24.8142 12.0613 24.8142ZM11.528 26.9475H10.4613V25.8808H11.528V26.9475Z" fill="white"/>
<path d="M17.3947 24.8142H15.2613C14.9668 24.8142 14.728 25.053 14.728 25.3475V27.4808C14.728 27.7754 14.9668 28.0142 15.2613 28.0142H17.3947C17.6892 28.0142 17.928 27.7754 17.928 27.4808V25.3475C17.928 25.053 17.6892 24.8142 17.3947 24.8142ZM16.8613 26.9475H15.7947V25.8808H16.8613V26.9475Z" fill="white"/>
<path d="M6.72801 24.8142H4.59467C4.30014 24.8142 4.06134 25.053 4.06134 25.3475V27.4808C4.06134 27.7754 4.30014 28.0142 4.59467 28.0142H6.72801C7.02254 28.0142 7.26134 27.7754 7.26134 27.4808V25.3475C7.26134 25.053 7.02254 24.8142 6.72801 24.8142ZM6.19467 26.9475H5.12801V25.8808H6.19467V26.9475Z" fill="white"/>
<path d="M12.0613 14.1475H9.92799C9.63346 14.1475 9.39465 14.3863 9.39465 14.6809V16.8142C9.39465 17.1087 9.63346 17.3475 9.92799 17.3475H12.0613C12.3559 17.3475 12.5947 17.1087 12.5947 16.8142V14.6809C12.5947 14.3863 12.3559 14.1475 12.0613 14.1475ZM11.528 16.2809H10.4613V15.2142H11.528V16.2809Z" fill="white"/>
<path d="M17.3947 14.1475H15.2613C14.9668 14.1475 14.728 14.3863 14.728 14.6809V16.8142C14.728 17.1087 14.9668 17.3475 15.2613 17.3475H17.3947C17.6892 17.3475 17.928 17.1087 17.928 16.8142V14.6809C17.928 14.3863 17.6892 14.1475 17.3947 14.1475ZM16.8613 16.2809H15.7947V15.2142H16.8613V16.2809Z" fill="white"/>
<path d="M22.728 19.4809H20.5947C20.3001 19.4809 20.0613 19.7197 20.0613 20.0142V22.1475C20.0613 22.4421 20.3001 22.6809 20.5947 22.6809H22.728C23.0225 22.6809 23.2613 22.4421 23.2613 22.1475V20.0142C23.2613 19.7197 23.0225 19.4809 22.728 19.4809ZM22.1947 21.6142H21.128V20.5475H22.1947V21.6142Z" fill="white"/>
<path d="M22.728 24.8142H20.5947C20.3001 24.8142 20.0613 25.053 20.0613 25.3475V27.4808C20.0613 27.7754 20.3001 28.0142 20.5947 28.0142H22.728C23.0225 28.0142 23.2613 27.7754 23.2613 27.4808V25.3475C23.2613 25.053 23.0225 24.8142 22.728 24.8142ZM22.1947 26.9475H21.128V25.8808H22.1947V26.9475Z" fill="white"/>
<path d="M22.728 14.1475H20.5947C20.3001 14.1475 20.0613 14.3863 20.0613 14.6809V16.8142C20.0613 17.1087 20.3001 17.3475 20.5947 17.3475H22.728C23.0225 17.3475 23.2613 17.1087 23.2613 16.8142V14.6809C23.2613 14.3863 23.0225 14.1475 22.728 14.1475ZM22.1947 16.2809H21.128V15.2142H22.1947V16.2809Z" fill="white"/>
<path d="M6.72801 14.1475H4.59467C4.30014 14.1475 4.06134 14.3863 4.06134 14.6809V16.8142C4.06134 17.1087 4.30014 17.3475 4.59467 17.3475H6.72801C7.02254 17.3475 7.26134 17.1087 7.26134 16.8142V14.6809C7.26134 14.3863 7.02254 14.1475 6.72801 14.1475ZM6.19467 16.2809H5.12801V15.2142H6.19467V16.2809Z" fill="white"/>
</g>
<defs>
<clipPath id="clip0">
<rect width="32" height="32" fill="white" transform="translate(0.328003 0.280853)"/>
</clipPath>
</defs>
</svg>
