<svg width="65" height="65" viewBox="0 0 65 65" fill="none" xmlns="http://www.w3.org/2000/svg">
<g clip-path="url(#clip0)">
<path d="M9.3252 64.0676H49.8584C51.6255 64.0676 53.0581 62.635 53.0581 60.8674V10.7341H57.3252C58.5034 10.7341 59.4585 9.77905 59.4585 8.60083V5.40112C59.4546 2.45679 57.0688 0.0710449 54.125 0.067627H9.3252C7.55762 0.067627 6.125 1.50024 6.125 3.26782V60.8674C6.125 62.635 7.55762 64.0676 9.3252 64.0676ZM54.125 2.20093C55.8921 2.20093 57.3252 3.63354 57.3252 5.40112V8.60083H14.6582V5.40112C14.6543 4.24292 14.27 3.1189 13.564 2.20093H54.125ZM8.2583 3.26782C8.2583 2.67847 8.73584 2.20093 9.3252 2.20093C11.0923 2.20093 12.5249 3.63354 12.5249 5.40112V8.60083C12.5249 9.77905 13.48 10.7341 14.6582 10.7341H50.9248V60.8674C50.9248 61.4568 50.4473 61.9343 49.8584 61.9343H9.3252C8.73584 61.9343 8.2583 61.4568 8.2583 60.8674V3.26782Z" fill="#FF5100"/>
<path d="M14.6582 26.7341H21.0581C22.2363 26.7341 23.1919 25.7791 23.1919 24.6008V23.5344C23.1919 22.9451 22.7139 22.4675 22.125 22.4675C21.5361 22.4675 21.0581 22.9451 21.0581 23.5344V24.6008H14.6582V18.2009H17.8584C18.4473 18.2009 18.9248 17.7234 18.9248 17.1345C18.9248 16.5452 18.4473 16.0676 17.8584 16.0676H14.6582C13.48 16.0676 12.5249 17.0227 12.5249 18.2009V24.6008C12.5249 25.7791 13.48 26.7341 14.6582 26.7341Z" fill="#FF5100"/>
<path d="M14.6582 41.6677H21.0581C22.2363 41.6677 23.1919 40.7126 23.1919 39.5344V33.1345C23.1919 31.9563 22.2363 31.0007 21.0581 31.0007H14.6582C13.48 31.0007 12.5249 31.9563 12.5249 33.1345V39.5344C12.5249 40.7126 13.48 41.6677 14.6582 41.6677ZM14.6582 33.1345H21.0581V39.5344H14.6582V33.1345Z" fill="#FF5100"/>
<path d="M14.6582 56.6008H21.0581C22.2363 56.6008 23.1919 55.6458 23.1919 54.4675V48.0676C23.1919 46.8894 22.2363 45.9343 21.0581 45.9343H14.6582C13.48 45.9343 12.5249 46.8894 12.5249 48.0676V54.4675C12.5249 55.6458 13.48 56.6008 14.6582 56.6008ZM14.6582 48.0676H21.0581V54.4675H14.6582V48.0676Z" fill="#FF5100"/>
<path d="M27.4585 20.3342H32.7915C33.3809 20.3342 33.8584 19.8567 33.8584 19.2678C33.8584 18.6785 33.3809 18.2009 32.7915 18.2009H27.4585C26.8691 18.2009 26.3916 18.6785 26.3916 19.2678C26.3916 19.8567 26.8691 20.3342 27.4585 20.3342Z" fill="#FF5100"/>
<path d="M37.0581 20.3342H47.7251C48.314 20.3342 48.7915 19.8567 48.7915 19.2678C48.7915 18.6785 48.314 18.2009 47.7251 18.2009H37.0581C36.4692 18.2009 35.9917 18.6785 35.9917 19.2678C35.9917 19.8567 36.4692 20.3342 37.0581 20.3342Z" fill="#FF5100"/>
<path d="M27.4585 24.6008H38.125C38.7139 24.6008 39.1919 24.1233 39.1919 23.5344C39.1919 22.9451 38.7139 22.4675 38.125 22.4675H27.4585C26.8691 22.4675 26.3916 22.9451 26.3916 23.5344C26.3916 24.1233 26.8691 24.6008 27.4585 24.6008Z" fill="#FF5100"/>
<path d="M47.7251 22.4675H42.3916C41.8027 22.4675 41.3252 22.9451 41.3252 23.5344C41.3252 24.1233 41.8027 24.6008 42.3916 24.6008H47.7251C48.314 24.6008 48.7915 24.1233 48.7915 23.5344C48.7915 22.9451 48.314 22.4675 47.7251 22.4675Z" fill="#FF5100"/>
<path d="M27.4585 35.2678H32.7915C33.3809 35.2678 33.8584 34.7903 33.8584 34.2009C33.8584 33.6121 33.3809 33.1345 32.7915 33.1345H27.4585C26.8691 33.1345 26.3916 33.6121 26.3916 34.2009C26.3916 34.7903 26.8691 35.2678 27.4585 35.2678Z" fill="#FF5100"/>
<path d="M47.7251 33.1345H37.0581C36.4692 33.1345 35.9917 33.6121 35.9917 34.2009C35.9917 34.7903 36.4692 35.2678 37.0581 35.2678H47.7251C48.314 35.2678 48.7915 34.7903 48.7915 34.2009C48.7915 33.6121 48.314 33.1345 47.7251 33.1345Z" fill="#FF5100"/>
<path d="M27.4585 39.5344H38.125C38.7139 39.5344 39.1919 39.0569 39.1919 38.4675C39.1919 37.8787 38.7139 37.4011 38.125 37.4011H27.4585C26.8691 37.4011 26.3916 37.8787 26.3916 38.4675C26.3916 39.0569 26.8691 39.5344 27.4585 39.5344Z" fill="#FF5100"/>
<path d="M47.7251 37.4011H42.3916C41.8027 37.4011 41.3252 37.8787 41.3252 38.4675C41.3252 39.0569 41.8027 39.5344 42.3916 39.5344H47.7251C48.314 39.5344 48.7915 39.0569 48.7915 38.4675C48.7915 37.8787 48.314 37.4011 47.7251 37.4011Z" fill="#FF5100"/>
<path d="M27.4585 50.2009H32.7915C33.3809 50.2009 33.8584 49.7234 33.8584 49.1345C33.8584 48.5452 33.3809 48.0676 32.7915 48.0676H27.4585C26.8691 48.0676 26.3916 48.5452 26.3916 49.1345C26.3916 49.7234 26.8691 50.2009 27.4585 50.2009Z" fill="#FF5100"/>
<path d="M47.7251 48.0676H37.0581C36.4692 48.0676 35.9917 48.5452 35.9917 49.1345C35.9917 49.7234 36.4692 50.2009 37.0581 50.2009H47.7251C48.314 50.2009 48.7915 49.7234 48.7915 49.1345C48.7915 48.5452 48.314 48.0676 47.7251 48.0676Z" fill="#FF5100"/>
<path d="M27.4585 54.4675H38.125C38.7139 54.4675 39.1919 53.99 39.1919 53.4011C39.1919 52.8118 38.7139 52.3342 38.125 52.3342H27.4585C26.8691 52.3342 26.3916 52.8118 26.3916 53.4011C26.3916 53.99 26.8691 54.4675 27.4585 54.4675Z" fill="#FF5100"/>
<path d="M47.7251 52.3342H42.3916C41.8027 52.3342 41.3252 52.8118 41.3252 53.4011C41.3252 53.99 41.8027 54.4675 42.3916 54.4675H47.7251C48.314 54.4675 48.7915 53.99 48.7915 53.4011C48.7915 52.8118 48.314 52.3342 47.7251 52.3342Z" fill="#FF5100"/>
<path d="M17.5459 19.5804C17.1275 19.1761 16.462 19.1819 16.0503 19.5931C15.6392 20.0047 15.6333 20.6697 16.0376 21.0887L18.1709 23.222C18.3711 23.4217 18.6421 23.5345 18.9248 23.5345H19.0137C19.3262 23.5081 19.6114 23.346 19.7935 23.0906L25.1265 15.6238C25.3482 15.3138 25.3872 14.909 25.229 14.5623C25.0713 14.2151 24.7403 13.9788 24.3609 13.9422C23.9815 13.9056 23.6114 14.0745 23.3902 14.3846L18.7896 20.826L17.5459 19.5804Z" fill="#FF5100"/>
</g>
<defs>
<clipPath id="clip0">
<rect width="64" height="64" fill="white" transform="translate(0.75 0.067627)"/>
</clipPath>
</defs>
</svg>
