<svg width="65" height="65" viewBox="0 0 65 65" fill="none" xmlns="http://www.w3.org/2000/svg">
<g clip-path="url(#clip0)">
<path fill-rule="evenodd" clip-rule="evenodd" d="M61.5952 14.2771C61.5947 14.2634 61.5938 14.2502 61.5928 14.2361C61.5894 14.1824 61.5835 14.1287 61.5732 14.0764V14.0759C61.5625 14.0227 61.5474 13.9709 61.5298 13.9202C61.5259 13.907 61.521 13.8943 61.5161 13.8816C61.498 13.8337 61.478 13.7864 61.4541 13.7405C61.4526 13.738 61.4517 13.7351 61.4507 13.7327C61.4253 13.6848 61.3955 13.6394 61.3643 13.595C61.356 13.5842 61.3481 13.573 61.3398 13.5623C61.3062 13.5183 61.2705 13.4753 61.231 13.4358L48.229 0.433838C48.1895 0.394287 48.147 0.359131 48.103 0.325439C48.0918 0.31665 48.0806 0.30835 48.0693 0.300537C48.0249 0.268799 47.98 0.239502 47.9326 0.2146C47.9297 0.212646 47.9263 0.21167 47.9229 0.209717C47.8779 0.186279 47.8311 0.16626 47.7837 0.148682C47.771 0.143799 47.7578 0.138916 47.7446 0.134521C47.6938 0.117432 47.6421 0.102295 47.5894 0.0915527C47.5884 0.0915527 47.5879 0.0915527 47.5869 0.0915527C47.5352 0.0812988 47.4824 0.0754395 47.4292 0.0715332C47.415 0.0710449 47.4014 0.0700684 47.3872 0.0695801C47.373 0.0690918 47.3594 0.067627 47.3447 0.067627H14.7915C14.1011 0.067627 13.5415 0.627197 13.5415 1.31763V46.7034C12.897 46.9666 12.3057 47.3572 11.7998 47.8635L4.68213 54.9807C2.60596 57.0574 2.60596 60.4363 4.68262 62.5125C5.68506 63.5154 7.02246 64.0676 8.44824 64.0676C9.87402 64.0676 11.2114 63.5154 12.2144 62.5125L13.5415 61.1853V62.8176C13.5415 63.5081 14.1011 64.0676 14.7915 64.0676H60.3472C61.0376 64.0676 61.5972 63.5081 61.5972 62.8176V14.3201C61.5972 14.3054 61.5957 14.2913 61.5952 14.2771ZM48.5947 4.33569L57.3296 13.0701H48.5947V4.33569ZM10.4463 60.7449C9.91602 61.2756 9.20605 61.5676 8.44824 61.5676C7.69043 61.5676 6.98047 61.2756 6.4502 60.7449C5.34863 59.6428 5.34814 57.8503 6.4502 56.7483L13.5674 49.6311C14.0977 49.1003 14.8076 48.8083 15.5654 48.8083C16.3237 48.8083 17.0332 49.1003 17.564 49.6311C18.0942 50.1619 18.3867 50.8713 18.3867 51.6292C18.3867 52.3875 18.0942 53.0969 17.5635 53.6277L13.9087 57.2825C13.9082 57.2834 13.9072 57.2839 13.9067 57.2844L10.4463 60.7449ZM16.0415 61.5676V58.6853L19.3315 55.3953C20.3345 54.3928 20.8867 53.0554 20.8867 51.6292C20.8867 50.6321 20.6157 49.679 20.1104 48.8523L23.897 45.0652C26.5962 47.3547 29.9829 48.6033 33.562 48.6033C37.5605 48.6033 41.3198 47.0461 44.1475 44.2185C46.9751 41.3909 48.5322 37.6316 48.5322 33.6326C48.5322 29.634 46.9751 25.8748 44.1475 23.0471C38.3105 17.2107 28.8135 17.2102 22.9766 23.0471C21.478 24.5457 20.3364 26.302 19.583 28.2683C19.3359 28.9128 19.6582 29.6355 20.3032 29.8826C20.9478 30.1296 21.6704 29.8074 21.9175 29.1628C22.5444 27.5266 23.4956 26.0637 24.7441 24.8147C29.6064 19.9529 37.5176 19.9529 42.3799 24.8147C44.7349 27.1702 46.0322 30.3015 46.0322 33.6326C46.0322 36.9636 44.7349 40.095 42.3799 42.4504C40.0244 44.8059 36.8926 46.1028 33.562 46.1028C30.231 46.1028 27.0996 44.8059 24.7441 42.4504C23.4951 41.2014 22.5444 39.739 21.9175 38.1028C21.6704 37.4583 20.9478 37.136 20.3032 37.3826C19.6582 37.6296 19.3359 38.3523 19.583 38.9973C20.187 40.574 21.0415 42.0154 22.1289 43.2981L18.3423 47.0847C17.6484 46.6604 16.8652 46.4021 16.0415 46.3298V2.56763H46.0947V14.3201C46.0947 15.0105 46.6548 15.5701 47.3447 15.5701H59.0972V61.5676H16.0415Z" fill="#FF5100"/>
<path fill-rule="evenodd" clip-rule="evenodd" d="M38.105 39.9436C38.3491 40.1877 38.6689 40.3098 38.9893 40.3098C39.3091 40.3098 39.6289 40.1877 39.873 39.9436C41.5586 38.2581 42.4868 36.0168 42.4868 33.6331C42.4868 31.2488 41.5586 29.0076 39.873 27.322C39.3848 26.8337 38.5933 26.8337 38.105 27.322C37.6167 27.8103 37.6167 28.6018 38.105 29.0896C39.3188 30.3035 39.9868 31.9167 39.9868 33.6331C39.9868 35.3494 39.3188 36.9626 38.105 38.176C37.6167 38.6643 37.6167 39.4553 38.105 39.9436Z" fill="#FF5100"/>
<path fill-rule="evenodd" clip-rule="evenodd" d="M18.5918 33.6331C18.5918 34.3215 19.1533 34.8831 19.8418 34.8831C20.5303 34.8831 21.0918 34.3215 21.0918 33.6331C21.0918 32.9441 20.5303 32.3831 19.8418 32.3831C19.1533 32.3831 18.5918 32.9446 18.5918 33.6331Z" fill="#FF5100"/>
</g>
<defs>
<clipPath id="clip0">
<rect width="64" height="64" fill="white" transform="translate(0.25 0.067627)"/>
</clipPath>
</defs>
</svg>
