<svg width="65" height="65" viewBox="0 0 65 65" fill="none" xmlns="http://www.w3.org/2000/svg">
<g clip-path="url(#clip0)">
<path d="M54.8234 28.6953C54.1591 28.5094 53.4688 28.897 53.2826 29.5618C51.4879 35.9686 46.7061 41.2311 40.4912 43.6389C40.0099 43.8254 39.6928 44.2884 39.6928 44.8045V46.5676H34.0678V35.2611C34.4027 35.2979 34.7371 35.3171 35.0697 35.3171C37.4599 35.3171 39.7621 34.378 41.5133 32.6268C43.8253 30.3148 44.7217 27.0434 43.9111 23.876C43.7978 23.4335 43.4524 23.0881 43.0099 22.9749C39.8426 22.1645 36.5712 23.0608 34.2592 25.3725C33.6919 25.9398 33.2103 26.5651 32.8178 27.2323C32.4253 26.5651 31.9438 25.9399 31.3766 25.3725C29.0646 23.0605 25.7928 22.1641 22.6257 22.9748C22.1832 23.088 21.8378 23.4334 21.7246 23.8759C20.9141 27.0434 21.8104 30.3148 24.1223 32.6268C25.8738 34.3781 28.1756 35.3171 30.5659 35.3171C30.8986 35.3171 31.2329 35.2978 31.5678 35.261V46.5676H25.9428V44.8046C25.9428 44.2885 25.6256 43.8255 25.1444 43.639C17.0239 40.4929 11.5679 32.5273 11.5679 23.8176C11.5679 12.1004 21.1007 2.56763 32.8179 2.56763C42.6528 2.56763 51.1436 9.23175 53.4659 18.7734C53.6292 19.4443 54.3058 19.8556 54.9761 19.6924C55.6468 19.5291 56.0583 18.853 55.8951 18.1823C54.6586 13.1021 51.7123 8.501 47.5988 5.2265C43.3592 1.8515 38.2479 0.067627 32.8179 0.067627C19.7221 0.067627 9.06793 10.7219 9.06793 23.8176C9.06793 28.7035 10.5404 33.3966 13.3263 37.3899C15.8826 41.054 19.3677 43.8941 23.4429 45.6443V46.7828C21.9881 47.2988 20.9429 48.6881 20.9429 50.3178C20.9429 51.9474 21.9881 53.3368 23.4429 53.8528V54.6926C23.4429 59.862 27.6486 64.0676 32.8179 64.0676C37.9873 64.0676 42.1929 59.862 42.1929 54.6926V53.8526C43.6478 53.3366 44.6929 51.9473 44.6929 50.3176C44.6929 48.688 43.6478 47.2986 42.1929 46.7826V45.6438C48.7479 42.8224 53.7617 37.1203 55.6901 30.2361C55.8762 29.5714 55.4883 28.8815 54.8234 28.6953ZM36.0269 27.1404C37.5256 25.6419 39.5783 24.9614 41.6377 25.2484C41.9247 27.3079 41.2441 29.3606 39.7457 30.859C38.2472 32.3575 36.1948 33.038 34.1351 32.751C33.8478 30.6914 34.5286 28.6388 36.0269 27.1404ZM31.5008 32.751C29.4409 33.0379 27.3886 32.3574 25.8902 30.859C24.3917 29.3605 23.7109 27.3079 23.9982 25.2484C26.0574 24.9611 28.1103 25.6419 29.6088 27.1403C31.1073 28.6388 31.7881 30.6914 31.5008 32.751ZM39.6929 54.6926C39.6929 58.4835 36.6088 61.5676 32.8179 61.5676C29.0271 61.5676 25.9429 58.4835 25.9429 54.6926V54.0676H39.6929V54.6926ZM40.9429 51.5676H24.6929C24.0037 51.5676 23.4429 51.0069 23.4429 50.3176C23.4429 49.6284 24.0037 49.0676 24.6929 49.0676H40.9429C41.6322 49.0676 42.1929 49.6284 42.1929 50.3176C42.1929 51.0069 41.6322 51.5676 40.9429 51.5676Z" fill="#FF5100"/>
<path d="M55.318 22.5676C54.6276 22.5676 54.068 23.1273 54.068 23.8176L54.0677 23.9251C54.0645 24.6155 54.6213 25.1778 55.3117 25.1811C55.3138 25.1811 55.3158 25.1811 55.3178 25.1811C56.0053 25.1811 56.5643 24.6255 56.5677 23.9371L56.5679 23.8176C56.5679 23.1273 56.0083 22.5676 55.318 22.5676Z" fill="#FF5100"/>
<path d="M32.8167 6.81763C32.1263 6.81763 31.5667 7.37725 31.5667 8.06763V16.2855C31.5667 16.9759 32.1263 17.5355 32.8167 17.5355C33.5071 17.5355 34.0667 16.9759 34.0667 16.2855V8.06763C34.0667 7.37725 33.5071 6.81763 32.8167 6.81763Z" fill="#FF5100"/>
<path d="M27.3483 15.4015L24.9638 13.019C24.4754 12.5308 23.684 12.5312 23.196 13.0196C22.708 13.508 22.7084 14.2995 23.1967 14.7873L25.5812 17.17C25.8253 17.4138 26.1449 17.5357 26.4647 17.5357C26.7848 17.5357 27.1048 17.4135 27.3489 17.1692C27.8369 16.6808 27.8365 15.8893 27.3483 15.4015Z" fill="#FF5100"/>
<path d="M42.4391 13.0212C41.9507 12.5332 41.1592 12.5337 40.6713 13.022L38.1363 15.5591C37.6484 16.0475 37.6487 16.839 38.137 17.3269C38.3811 17.5707 38.7007 17.6926 39.0205 17.6926C39.3406 17.6926 39.6606 17.5704 39.9047 17.3261L42.4397 14.789C42.9277 14.3006 42.9273 13.5091 42.4391 13.0212Z" fill="#FF5100"/>
<path d="M33.7179 20.3189C33.4854 20.0864 33.1629 19.9526 32.8342 19.9526C32.5054 19.9526 32.1829 20.0864 31.9504 20.3189C31.7167 20.5514 31.5842 20.8739 31.5842 21.2026C31.5842 21.5326 31.7167 21.8539 31.9504 22.0864C32.1829 22.3201 32.5054 22.4526 32.8342 22.4526C33.1629 22.4526 33.4854 22.3201 33.7179 22.0864C33.9504 21.8539 34.0842 21.5326 34.0842 21.2026C34.0842 20.8739 33.9504 20.5514 33.7179 20.3189Z" fill="#FF5100"/>
</g>
<defs>
<clipPath id="clip0">
<rect width="64" height="64" fill="white" transform="translate(0.817932 0.067627)"/>
</clipPath>
</defs>
</svg>
