<svg width="174" height="53" viewBox="0 0 174 53" fill="none" xmlns="http://www.w3.org/2000/svg">
<path d="M153.27 1.20374L102.26 52.575H122.281L160.582 14.0466L173.291 26.8894V1.20374H153.27Z" fill="white"/>
<path d="M147.786 1.20374L135.077 14.0465L122.281 1.20374H147.786Z" fill="white"/>
<path d="M127.765 52.575L160.582 19.5004L173.291 32.3432V52.575L160.582 39.7322L147.786 52.575H127.765Z" fill="white"/>
<path d="M8.5959 34.1024V16.8613L18.2582 34.1024H27.7465L17.0396 16.5095L26.7019 1.20366H17.4748L8.5959 16.7734V1.20366H0.587463V34.1024H8.5959ZM28.8781 23.8105C29.1393 25.5698 29.6616 27.1532 30.445 28.4727C31.1414 29.7921 32.0989 30.8477 33.1435 31.7273C34.2751 32.607 35.4938 33.2227 36.7995 33.6626C38.1923 34.1024 39.6721 34.2783 41.1519 34.2783C43.067 34.2783 44.7209 33.9265 46.2007 33.3107C47.6805 32.695 48.9863 31.7273 50.2049 30.5838C51.0754 29.7042 51.6847 28.7366 52.207 27.7689C52.6423 26.8013 52.9905 25.7458 53.1646 24.6022C53.3387 23.4587 53.4257 22.3151 53.5128 21.1716C53.5128 20.0281 53.5128 18.7966 53.5128 17.5651C53.5128 16.3336 53.5128 15.1021 53.5128 13.9585C53.5128 12.727 53.3387 11.5835 53.1646 10.5279C52.9905 9.38436 52.6423 8.41675 52.207 7.36118C51.7718 6.39357 51.0754 5.42596 50.2049 4.54632C48.9863 3.31481 47.6805 2.43517 46.2007 1.81942C44.8079 1.20366 43.067 0.851807 41.1519 0.851807C39.5851 0.851807 38.1052 1.1157 36.7995 1.46756C35.4067 1.90738 34.1881 2.6111 33.1435 3.49074C32.0119 4.37039 31.1414 5.42596 30.445 6.74543C29.7486 8.0649 29.2263 9.64826 28.8781 11.4075H36.8866C37.0607 10.7918 37.3218 10.176 37.67 9.64826C38.0182 9.12047 38.4534 8.68065 39.0628 8.41675C39.5851 8.0649 40.2814 7.88897 41.1519 7.88897C41.9354 7.88897 42.5447 8.0649 43.154 8.32879C43.6763 8.59268 44.1116 8.94454 44.4598 9.38436C44.6339 9.64826 44.8079 9.91215 44.982 10.264C45.1561 10.6159 45.2432 11.0557 45.4173 11.6714C45.5043 12.2872 45.5914 13.0789 45.6784 14.0465H36.9736V21.0836H45.6784C45.5914 21.8753 45.5914 22.4911 45.5043 23.0189C45.4173 23.5466 45.3302 23.9865 45.2432 24.3383C45.1561 24.6902 44.982 24.9541 44.895 25.218C44.8079 25.4819 44.6339 25.6578 44.4598 25.8337C44.1116 26.2735 43.6763 26.6254 43.154 26.8893C42.6317 27.1532 41.9354 27.3291 41.1519 27.3291C40.2814 27.3291 39.498 27.1532 38.9757 26.8013C38.4534 26.4495 37.9311 26.0976 37.5829 25.5698C37.2348 25.042 36.9736 24.4263 36.7995 23.8105H28.8781ZM85.1113 34.1024L73.2727 1.20366H67.0923L55.1667 34.1024H63.6104L65.1772 29.1764H75.2748L76.7546 34.1024H85.1113ZM73.0986 22.4031H67.4405L70.4001 13.6067L73.0986 22.4031ZM99.126 34.3663C100.867 34.3663 102.521 34.1024 104.001 33.6626C105.481 33.2227 106.786 32.519 107.831 31.6394C108.875 30.7597 109.746 29.7042 110.355 28.4727C110.965 27.2412 111.226 25.8337 111.226 24.3383C111.226 23.1948 111.052 22.2272 110.616 21.2596C110.268 20.292 109.746 19.5003 109.05 18.7966C108.353 18.0928 107.657 17.5651 106.786 17.1252C107.57 16.6854 108.179 16.0697 108.788 15.3659C109.398 14.6622 109.833 13.8706 110.181 12.9909C110.529 12.1113 110.703 11.2316 110.703 10.176C110.703 8.76861 110.442 7.44914 109.833 6.30561C109.311 5.16207 108.44 4.19446 107.396 3.40278C106.351 2.6111 105.132 1.99535 103.74 1.55552C102.347 1.1157 100.78 0.851807 99.126 0.851807C97.5591 0.851807 96.0793 1.1157 94.7736 1.46756C93.3808 1.90738 92.1622 2.52313 91.1176 3.40278C89.986 4.28242 89.1155 5.338 88.4191 6.65746C87.5486 8.0649 87.0263 9.64826 86.7652 11.4075H94.7736C94.9477 10.7918 95.2088 10.176 95.557 9.64826C95.9052 9.12047 96.3405 8.68065 96.9498 8.32879C97.5591 7.97693 98.2555 7.801 99.126 7.801C99.9094 7.801 100.519 7.88897 101.041 8.15286C101.563 8.41675 101.999 8.76861 102.26 9.20843C102.521 9.64826 102.695 10.176 102.695 10.7918C102.695 11.7594 102.347 12.5511 101.737 13.0789C101.128 13.6067 100.258 13.9585 99.126 13.9585H94.7736V20.5559H99.126C100.084 20.5559 100.78 20.7318 101.389 20.9957C101.999 21.2596 102.434 21.6994 102.695 22.2272C102.956 22.755 103.13 23.3707 103.13 23.9865C103.13 24.6022 102.956 25.218 102.695 25.6578C102.434 26.1856 101.912 26.5374 101.302 26.8013C100.693 27.0652 99.9965 27.2412 99.039 27.2412C98.1685 27.2412 97.4721 27.0652 96.8628 26.7134C96.2534 26.3615 95.8182 26.0097 95.47 25.4819C95.1218 24.9541 94.8606 24.3383 94.6866 23.7226H86.7652C87.0263 25.4819 87.5486 27.0652 88.332 28.3847C89.0284 29.7042 89.986 30.7597 91.0305 31.6394C92.0751 32.519 93.3808 33.1348 94.6866 33.5746C96.0793 34.1024 97.5591 34.3663 99.126 34.3663Z" fill="white"/>
<path d="M3.98234 45.186C3.98234 45.0101 3.98234 44.8341 3.98234 44.6582C3.98234 44.4823 3.89529 44.3063 3.80825 44.1304C3.7212 43.9545 3.63415 43.8665 3.46005 43.7786C3.28596 43.6906 3.11186 43.6026 2.85072 43.6026C2.58957 43.6026 2.32843 43.6906 2.24138 43.7786C2.06728 43.9545 1.98023 44.0425 1.89319 44.3063C1.80614 44.4823 1.80614 44.6582 1.71909 44.9221C1.71909 45.098 1.71909 45.274 1.71909 45.4499V50.2C1.71909 50.3759 1.71909 50.4639 1.71909 50.6398C1.71909 50.8157 1.80614 50.9916 1.89319 51.0796C1.98023 51.2555 2.06728 51.3435 2.24138 51.4315C2.41548 51.5194 2.58957 51.6074 2.85072 51.6074C3.11186 51.6074 3.28596 51.5194 3.46005 51.4315C3.63415 51.3435 3.7212 51.2555 3.80825 51.0796C3.89529 50.9037 3.98234 50.7278 3.98234 50.5518C3.98234 50.3759 4.06939 50.2 4.06939 49.9361V45.186H3.98234ZM5.11397 49.9361C5.11397 50.8157 4.93987 51.5194 4.59168 51.9593C4.24349 52.3991 3.63415 52.663 2.85072 52.663C2.06728 52.663 1.45795 52.3991 1.10975 51.9593C0.76156 51.5194 0.587463 50.9916 0.587463 50.2V45.3619C0.587463 45.0101 0.587463 44.6582 0.674512 44.3063C0.76156 43.9545 0.848608 43.6906 1.0227 43.4267C1.1968 43.1628 1.45795 42.9869 1.71909 42.811C1.98023 42.635 2.41548 42.5471 2.85072 42.5471C3.37301 42.5471 3.7212 42.635 4.06939 42.723C4.33054 42.8989 4.59168 43.0748 4.76578 43.3387C4.93987 43.6026 5.02692 43.8665 5.11397 44.2184C5.20102 44.5702 5.20102 44.9221 5.20102 45.274V49.9361H5.11397Z" fill="white"/>
<path d="M10.3369 42.6349C11.1204 42.6349 11.6427 42.8109 11.9909 43.2507C12.339 43.6905 12.5131 44.2183 12.5131 44.922L11.3815 45.098C11.3815 44.6581 11.2945 44.3063 11.1204 44.0424C10.9463 43.7785 10.6851 43.6905 10.2499 43.6905C9.98874 43.6905 9.81465 43.7785 9.7276 43.8665C9.5535 43.9544 9.46645 44.1303 9.3794 44.2183C9.29236 44.3942 9.20531 44.5702 9.20531 44.7461C9.20531 44.922 9.20531 45.098 9.20531 45.2739V50.2879C9.20531 50.4638 9.20531 50.5518 9.20531 50.7277C9.20531 50.9036 9.29236 51.0795 9.3794 51.1675C9.46645 51.3434 9.5535 51.4314 9.7276 51.5194C9.90169 51.6073 10.0758 51.6953 10.2499 51.6953C10.5981 51.6953 10.8592 51.6073 11.0333 51.3434C11.2074 51.0795 11.2945 50.7277 11.2945 50.2879L12.4261 50.4638C12.4261 51.1675 12.252 51.6953 11.8168 52.1351C11.4686 52.5749 10.9463 52.7509 10.1628 52.7509C9.3794 52.7509 8.85712 52.5749 8.50892 52.1351C8.16073 51.6953 7.98663 51.1675 7.98663 50.3758V45.5378C7.98663 45.1859 7.98663 44.8341 8.07368 44.4822C8.16073 44.1303 8.24778 43.8665 8.42187 43.6026C8.59597 43.3387 8.77007 43.1627 9.11826 42.9868C9.46645 42.7229 9.90169 42.6349 10.3369 42.6349Z" fill="white"/>
<path d="M18.6935 52.5749V48.0008H16.4302V52.5749H15.2986V42.7229H16.4302V47.0332H18.6935V42.7229H19.8251V52.5749H18.6935Z" fill="white"/>
<path d="M26.2666 45.186C26.2666 45.0101 26.2666 44.8341 26.2666 44.6582C26.2666 44.4823 26.1796 44.3063 26.0925 44.1304C26.0055 43.9545 25.9185 43.8665 25.7444 43.7786C25.5703 43.6906 25.3962 43.6026 25.135 43.6026C24.8739 43.6026 24.6127 43.6906 24.5257 43.7786C24.3516 43.9545 24.2645 44.0425 24.1775 44.3063C24.0904 44.4823 24.0904 44.6582 24.0034 44.9221C24.0034 45.098 24.0034 45.274 24.0034 45.4499V50.2C24.0034 50.3759 24.0034 50.4639 24.0034 50.6398C24.0034 50.8157 24.0904 50.9916 24.1775 51.0796C24.2645 51.2555 24.3516 51.3435 24.5257 51.4315C24.6998 51.5194 24.8739 51.6074 25.135 51.6074C25.3962 51.6074 25.5703 51.5194 25.7444 51.4315C25.9185 51.3435 26.0055 51.2555 26.0925 51.0796C26.1796 50.9037 26.2666 50.7278 26.2666 50.5518C26.2666 50.3759 26.3537 50.2 26.3537 49.9361V45.186H26.2666ZM27.3983 49.9361C27.3983 50.8157 27.2242 51.5194 26.876 51.9593C26.5278 52.3991 25.9185 52.663 25.135 52.663C24.3516 52.663 23.7422 52.3991 23.3941 51.9593C23.0459 51.5194 22.8718 50.9037 22.8718 50.2V45.3619C22.8718 45.0101 22.8718 44.6582 22.9588 44.3063C23.0459 43.9545 23.1329 43.6906 23.307 43.4267C23.4811 43.1628 23.7422 42.9869 24.0034 42.811C24.2645 42.635 24.6998 42.5471 25.135 42.5471C25.6573 42.5471 26.0055 42.635 26.3537 42.723C26.6148 42.8989 26.876 43.0748 27.0501 43.3387C27.2242 43.6026 27.3112 43.8665 27.3983 44.2184C27.4853 44.5702 27.4853 44.9221 27.4853 45.274V49.9361H27.3983Z" fill="white"/>
<path d="M33.8399 49.5841C33.8399 49.0563 33.7528 48.6165 33.5787 48.3526C33.4046 48.0887 32.9694 47.9128 32.4471 47.9128H31.6637V51.6073H32.5342C32.8823 51.6073 33.0564 51.5194 33.2305 51.4314C33.4046 51.3434 33.5787 51.1675 33.6658 50.9916C33.7528 50.8156 33.8399 50.5517 33.8399 50.3758C33.8399 50.1119 33.8399 49.848 33.8399 49.5841ZM33.8399 45.2739C33.8399 44.7461 33.7528 44.3942 33.4917 44.1303C33.2305 43.8664 32.8823 43.6905 32.3601 43.6905H31.5766V46.8572H32.3601C32.8823 46.8572 33.2305 46.6813 33.4917 46.4174C33.6658 46.2415 33.8399 45.8017 33.8399 45.2739ZM33.8399 47.385C34.2751 47.561 34.5363 47.8248 34.7104 48.1767C34.8845 48.6165 34.9715 49.0563 34.9715 49.6721C34.9715 50.7277 34.7974 51.4314 34.3622 51.8712C33.9269 52.311 33.3176 52.5749 32.4471 52.5749H30.532V42.7229H32.6212C33.4917 42.7229 34.101 42.9868 34.4492 43.4266C34.7974 43.8664 34.9715 44.4822 34.9715 45.3618C34.9715 45.8896 34.8845 46.3294 34.7104 46.5933C34.4492 46.8572 34.1881 47.1211 33.8399 47.385Z" fill="white"/>
<path d="M40.0203 44.7461L39.5851 47.0332L39.1498 49.3202H40.9778L40.5426 46.9452L40.0203 44.7461ZM41.5872 52.5749L41.1519 50.3758H38.9757L38.5405 52.5749H37.4959L39.5851 42.7229H40.6296L42.7188 52.5749H41.5872Z" fill="white"/>
<path d="M48.6381 52.5749V48.0008H46.3749V52.5749H45.2432V42.7229H46.3749V47.0332H48.6381V42.7229H49.7697V52.5749H48.6381Z" fill="white"/>
<path d="M60.7378 49.5841C60.7378 49.0563 60.6507 48.6165 60.4766 48.3526C60.3025 48.0887 59.8673 47.9128 59.345 47.9128H58.5616V51.6073H59.432C59.7802 51.6073 59.9543 51.5194 60.1284 51.4314C60.3025 51.3434 60.4766 51.1675 60.5637 50.9916C60.6507 50.8156 60.7378 50.5517 60.7378 50.3758C60.7378 50.1119 60.7378 49.848 60.7378 49.5841ZM60.6507 45.2739C60.6507 44.7461 60.5637 44.3942 60.3025 44.1303C60.0414 43.8664 59.6932 43.6905 59.1709 43.6905H58.3875V46.8572H59.1709C59.6932 46.8572 60.0414 46.6813 60.3025 46.4174C60.5637 46.2415 60.6507 45.8017 60.6507 45.2739ZM60.7378 47.385C61.173 47.561 61.4341 47.8248 61.6082 48.1767C61.7823 48.6165 61.8694 49.0563 61.8694 49.6721C61.8694 50.7277 61.6953 51.4314 61.26 51.8712C60.8248 52.311 60.2155 52.5749 59.345 52.5749H57.4299V42.7229H59.5191C60.3896 42.7229 60.9989 42.9868 61.3471 43.4266C61.6953 43.8664 61.8694 44.4822 61.8694 45.3618C61.8694 45.8896 61.7823 46.3294 61.6082 46.5933C61.3471 46.8572 61.0859 47.1211 60.7378 47.385Z" fill="white"/>
<path d="M71.4447 52.5749V43.8664L69.9648 45.01V43.8664L71.3576 42.7229H72.4892V52.5749H71.4447Z" fill="white"/>
<path d="M77.4511 46.5934C77.4511 46.8572 77.5381 47.0332 77.7122 47.2091C77.8863 47.385 78.0604 47.385 78.3216 47.385C78.4957 47.385 78.6698 47.385 78.7568 47.2971C78.8439 47.2091 78.9309 47.1211 79.018 47.0332C79.105 46.9452 79.105 46.8572 79.1921 46.6813C79.1921 46.5933 79.1921 46.4174 79.1921 46.3295V44.3942C79.1921 44.1303 79.105 43.9544 78.9309 43.7785C78.7568 43.6026 78.5827 43.6026 78.3216 43.6026C78.0604 43.6026 77.8863 43.6905 77.7122 43.7785C77.5381 43.9544 77.4511 44.1303 77.4511 44.3942V46.5934ZM78.6698 48.1767C78.4957 48.3526 78.2345 48.4406 77.9734 48.4406C77.6252 48.4406 77.4511 48.3526 77.1899 48.2647C77.0158 48.1767 76.8417 48.0008 76.6677 47.8249C76.5806 47.6489 76.4936 47.473 76.4065 47.2091C76.3195 47.0332 76.3195 46.7693 76.3195 46.5934V44.4822C76.3195 44.1303 76.4065 43.8665 76.4936 43.6905C76.5806 43.4266 76.7547 43.2507 76.9288 43.0748C77.1029 42.8988 77.364 42.8109 77.5381 42.7229C77.7993 42.6349 78.0604 42.6349 78.3216 42.6349C78.9309 42.6349 79.4532 42.8109 79.8014 43.0748C80.1496 43.4266 80.3237 43.8665 80.3237 44.4822V46.1535C80.3237 46.5934 80.3237 46.9452 80.2366 47.2091C80.1496 47.473 80.1496 47.7369 80.0625 48.0008L78.2345 52.5749H77.1029L78.6698 48.1767Z" fill="white"/>
<path d="M86.9393 50.9916V52.5749H85.8947V50.9916H83.0222V50.024L85.0243 42.7229H86.1559L84.0667 50.024H85.8947V47.2971H86.9393V50.024H87.6357V50.9916H86.9393Z" fill="white"/>
<path d="M92.3363 52.6629C91.9881 52.6629 91.6399 52.5749 91.3788 52.487C91.1176 52.399 90.9435 52.2231 90.7694 52.0471C90.5953 51.8712 90.5083 51.6073 90.4212 51.3434C90.3342 51.0795 90.3342 50.7277 90.3342 50.4638L91.4658 50.2878C91.4658 50.4638 91.4658 50.7277 91.4658 50.8156C91.4658 50.9916 91.5528 51.1675 91.5528 51.2555C91.6399 51.3434 91.7269 51.5194 91.814 51.5194C91.901 51.6073 92.0751 51.6073 92.3363 51.6073C92.5974 51.6073 92.7715 51.5194 92.9456 51.3434C93.1197 51.1675 93.2068 50.9036 93.2068 50.5517V48.0008C93.2068 47.473 92.9456 47.1211 92.4233 47.1211C92.2492 47.1211 91.9881 47.2091 91.901 47.2971C91.7269 47.385 91.6399 47.5609 91.5528 47.7369H90.5953V42.7229H94.4254V43.6905H91.6399V46.6813H91.7269C91.901 46.5054 92.0751 46.4174 92.2492 46.3294C92.4233 46.2415 92.6845 46.2415 92.8586 46.2415C93.3809 46.2415 93.8161 46.4174 94.0772 46.6813C94.3384 47.0332 94.4254 47.385 94.4254 47.8248V50.4638C94.4254 50.8156 94.3384 51.1675 94.2513 51.4314C94.1643 51.6953 93.9902 51.9592 93.8161 52.0471C93.642 52.2231 93.3809 52.311 93.2068 52.399C92.8586 52.6629 92.5974 52.6629 92.3363 52.6629Z" fill="white"/>
</svg>
