<svg width="193" height="85" viewBox="0 0 193 85" fill="none" xmlns="http://www.w3.org/2000/svg">
<path d="M85.5153 29.9663L88.0905 35.4846C88.4584 36.2204 88.7036 36.9561 89.0715 37.8145C89.3168 37.0787 89.562 36.343 89.9299 35.4846L92.0146 29.9663H93.854L91.1562 36.7109C90.4204 38.4277 89.6847 40.3897 88.7036 41.616C87.8452 42.7196 86.8642 43.2101 85.7606 43.2101C85.3927 43.2101 85.0248 43.2101 84.7795 43.0875L84.9022 41.7386C85.0248 41.7386 85.27 41.7386 85.5153 41.7386C86.8642 41.7386 87.7226 40.3897 88.0905 39.5313C88.2131 39.286 88.2131 39.0408 88.0905 38.7955L83.7985 29.9663H85.5153Z" fill="white"/>
<path d="M104.523 29.9663V42.9649H102.806V31.3152H96.7971V42.9649H95.0803V29.9663H104.523Z" fill="white"/>
<path d="M107.466 30.2116C108.324 30.089 109.305 29.9663 110.654 29.9663C112.371 29.9663 113.474 30.3342 114.333 31.07C115.069 31.6831 115.436 32.6642 115.436 33.7678C115.436 34.9941 115.069 35.8525 114.455 36.5882C113.597 37.5693 112.126 38.0598 110.531 38.0598C110.041 38.0598 109.55 38.0598 109.182 37.9371V43.2101H107.466V30.2116ZM109.182 36.4656C109.55 36.5882 110.041 36.5882 110.531 36.5882C112.616 36.5882 113.842 35.6072 113.842 33.7678C113.842 32.051 112.616 31.1926 110.777 31.1926C110.041 31.1926 109.428 31.1926 109.182 31.3152V36.4656Z" fill="white"/>
<path d="M118.257 38.9182L116.908 42.9649H115.191L119.606 29.9663H121.69L126.105 42.9649H124.266L122.917 38.9182H118.257ZM122.426 37.5693L121.2 33.7678C120.955 32.9094 120.709 32.1736 120.464 31.4379C120.219 32.1736 120.096 33.032 119.851 33.7678L118.625 37.5693H122.426Z" fill="white"/>
<path d="M127.945 30.2116C128.68 30.089 129.784 29.9663 131.01 29.9663C132.727 29.9663 133.831 30.2116 134.566 30.9474C135.302 31.4379 135.67 32.1736 135.67 33.2773C135.67 34.5036 134.812 35.6072 133.463 36.0977C134.689 36.4656 136.161 37.4466 136.161 39.4087C136.161 40.5123 135.67 41.3707 135.057 41.9839C134.199 42.8423 132.727 43.2101 130.52 43.2101C129.416 43.2101 128.435 43.0875 127.945 43.0875V30.2116ZM129.661 35.4846H131.133C132.972 35.4846 133.953 34.5036 133.953 33.2773C133.953 31.8058 132.85 31.1926 131.133 31.1926C130.397 31.1926 129.907 31.1926 129.661 31.3152V35.4846ZM129.661 41.7386C130.029 41.7386 130.52 41.8612 131.133 41.8612C132.85 41.8612 134.444 41.2481 134.444 39.286C134.444 37.4466 132.972 36.8335 131.133 36.8335H129.784V41.7386H129.661Z" fill="white"/>
<path d="M147.074 29.9663V42.9649H145.358V31.3152H141.066V35.2393C141.066 38.0598 140.943 41.2481 139.104 42.4744C138.613 42.8423 137.877 43.0875 137.142 43.0875L136.896 41.7386C137.387 41.616 138 41.3707 138.245 41.0028C139.349 40.0218 139.349 37.4466 139.349 35.362V29.8437H147.074V29.9663Z" fill="white"/>
<path d="M156.639 36.9561H151.612V41.616H157.253V43.0875H149.895V29.9663H156.885V31.4379H151.489V35.6072H156.517V36.9561H156.639Z" fill="white"/>
<path d="M161.177 29.9663V35.362H167.431V29.9663H169.147V42.9649H167.431V36.8335H161.177V42.9649H159.46V29.9663H161.177Z" fill="white"/>
<path d="M173.562 29.9663V35.4846C173.562 37.5693 173.562 39.2861 173.439 41.0028C174.053 39.6539 174.911 38.1824 175.892 36.7109L180.061 29.9663H181.778V42.9649H180.184V37.4466C180.184 35.362 180.184 33.7678 180.307 32.1736C179.693 33.6452 178.835 35.1167 177.854 36.5882L173.807 43.0875H171.968V29.9663H173.562Z" fill="white"/>
<path d="M191.466 36.9561H186.438V41.616H192.079V43.0875H184.721V29.9663H191.711V31.4379H186.438V35.6072H191.466V36.9561Z" fill="white"/>
<path d="M81.8365 62.2174C81.2233 62.5853 79.997 62.8306 78.4029 62.8306C74.7241 62.8306 72.0262 60.5007 72.0262 56.2087C72.0262 52.162 74.8467 49.3415 78.7708 49.3415C80.3649 49.3415 81.4686 49.7094 81.8365 49.9547L81.4686 51.3036C80.8554 50.9357 79.8744 50.8131 78.8934 50.8131C75.8277 50.8131 73.8657 52.7751 73.8657 56.2087C73.8657 59.397 75.7051 61.4817 78.8934 61.4817C79.8744 61.4817 80.9781 61.2364 81.5912 60.9912L81.8365 62.2174Z" fill="white"/>
<path d="M94.7124 55.9634C94.7124 60.5007 92.0146 62.8306 88.7036 62.8306C85.27 62.8306 82.8175 60.1328 82.8175 56.2087C82.8175 52.0393 85.3927 49.3415 88.8262 49.3415C92.3824 49.4642 94.7124 52.162 94.7124 55.9634ZM84.5343 56.2087C84.5343 59.0291 86.0058 61.4817 88.7036 61.4817C91.4014 61.4817 92.8729 59.0291 92.8729 56.0861C92.8729 53.5109 91.524 50.8131 88.7036 50.8131C86.0058 50.8131 84.5343 53.3882 84.5343 56.2087Z" fill="white"/>
<path d="M110.041 62.2174C109.428 62.5853 108.201 62.8306 106.607 62.8306C102.928 62.8306 100.231 60.5007 100.231 56.2087C100.231 52.162 103.051 49.3415 106.975 49.3415C108.569 49.3415 109.673 49.7094 110.041 49.9547L109.673 51.3036C109.06 50.9357 108.079 50.8131 107.098 50.8131C104.032 50.8131 102.07 52.7751 102.07 56.2087C102.07 59.397 103.909 61.4817 107.098 61.4817C108.079 61.4817 109.182 61.2364 109.796 60.9912L110.041 62.2174Z" fill="white"/>
<path d="M123.162 56.9444C123.039 55.105 122.917 52.8977 122.917 51.3036C122.426 52.7751 121.936 54.4919 121.323 56.2087L118.993 62.5853H117.766L115.682 56.3313C115.069 54.4919 114.578 52.7751 114.21 51.3036C114.21 52.8977 114.088 55.105 113.965 57.0671L113.597 62.708H112.003L112.861 49.7094H114.946L117.153 55.9634C117.644 57.5576 118.134 59.0291 118.502 60.378C118.87 59.0291 119.238 57.6802 119.851 55.9634L122.181 49.7094H124.266L125.124 62.708H123.53L123.162 56.9444Z" fill="white"/>
<path d="M129.416 49.5868V54.4919C129.784 54.4919 130.52 54.3693 131.01 54.3693C133.708 54.3693 136.038 55.5955 136.038 58.416C136.038 59.6423 135.67 60.5006 135.057 61.2364C133.953 62.3401 132.236 62.7079 130.397 62.7079C129.293 62.7079 128.312 62.5853 127.822 62.5853V49.5868H129.416ZM129.416 61.359C129.784 61.4817 130.152 61.4817 130.765 61.4817C132.604 61.4817 134.199 60.5006 134.199 58.5386C134.199 56.4539 132.482 55.7182 130.765 55.7182C130.152 55.7182 129.661 55.7182 129.416 55.8408V61.359ZM139.104 49.5868V62.5853H137.387V49.5868H139.104Z" fill="white"/>
<path d="M151.244 62.2174C150.631 62.5853 149.404 62.8306 147.81 62.8306C144.131 62.8306 141.434 60.5007 141.434 56.2087C141.434 52.162 144.254 49.3415 148.178 49.3415C149.772 49.3415 150.876 49.7094 151.244 49.9547L150.876 51.3036C150.263 50.9357 149.282 50.8131 148.301 50.8131C145.235 50.8131 143.273 52.7751 143.273 56.2087C143.273 59.397 145.112 61.4817 148.301 61.4817C149.282 61.4817 150.385 61.2364 150.999 60.9912L151.244 62.2174Z" fill="white"/>
<path d="M162.526 49.5868V62.5853H160.809V50.9357H156.517V54.8598C156.517 57.6802 156.394 60.8685 154.555 62.0948C154.064 62.4627 153.328 62.708 152.593 62.708L152.347 61.359C152.838 61.2364 153.451 60.9912 153.696 60.6233C154.8 59.6423 154.8 57.0671 154.8 54.9824V49.4642H162.526V49.5868Z" fill="white"/>
<path d="M176.628 55.9634C176.628 60.5007 173.93 62.8306 170.619 62.8306C167.185 62.8306 164.733 60.1328 164.733 56.2087C164.733 52.0393 167.308 49.3415 170.742 49.3415C174.298 49.4642 176.628 52.162 176.628 55.9634ZM166.45 56.2087C166.45 59.0291 167.921 61.4817 170.619 61.4817C173.317 61.4817 174.788 59.0291 174.788 56.0861C174.788 53.5109 173.439 50.8131 170.619 50.8131C167.921 50.8131 166.45 53.3882 166.45 56.2087Z" fill="white"/>
<path d="M189.749 56.9444C189.626 55.105 189.504 52.8977 189.504 51.3036C189.013 52.7751 188.523 54.4919 187.909 56.2087L185.579 62.5853H184.353L182.269 56.3313C181.655 54.4919 181.165 52.7751 180.797 51.3036C180.797 52.8977 180.674 55.105 180.552 57.0671L180.184 62.708H178.59L179.448 49.7094H181.533L183.74 55.9634C184.231 57.5576 184.721 59.0291 185.089 60.378C185.457 59.0291 185.825 57.6802 186.438 55.9634L188.768 49.7094H190.852L191.711 62.708H190.117L189.749 56.9444Z" fill="white"/>
<path d="M76.6861 75.0934V75.8291H73.743V77.6685C73.9883 77.6685 74.3561 77.6685 74.6014 77.6685C75.2145 77.6685 75.8277 77.7912 76.3182 78.159C76.8087 78.5269 77.1766 79.0174 77.1766 79.7532C77.1766 80.3663 76.9313 80.8569 76.5634 81.2247C76.0729 81.7153 75.0919 81.9605 74.2335 81.9605C73.6204 81.9605 73.1299 81.9605 72.8846 81.8379V75.0934H76.6861ZM73.8656 81.1021C74.1109 81.1021 74.2335 81.1021 74.6014 81.1021C75.0919 81.1021 75.7051 80.9795 75.9503 80.6116C76.1956 80.3663 76.3182 79.9985 76.3182 79.6306C76.3182 79.1401 76.0729 78.7722 75.8277 78.5269C75.4598 78.2817 75.0919 78.159 74.6014 78.159C74.3561 78.159 74.1109 78.159 73.8656 78.159V81.1021Z" fill="white"/>
<path d="M82.0817 77.0554V79.0174C82.0817 79.7532 82.0817 80.2437 82.0817 80.9795C82.327 80.3664 82.5722 79.9985 82.8175 79.508L84.289 77.0554H85.27V81.8379H84.4116V79.7532C84.4116 79.0174 84.4116 78.5269 84.4116 77.7912C84.0437 78.4043 83.9211 78.7722 83.6759 79.2627C83.1853 79.9985 82.6948 80.9795 82.2043 81.7153H81.2233V76.9328H82.0817V77.0554Z" fill="white"/>
<path d="M89.9299 79.0174H90.2978C91.0335 79.0174 91.524 78.6496 91.524 78.2817C91.524 77.9138 91.1562 77.5459 90.543 77.5459C90.1751 77.5459 89.6846 77.6685 89.4394 77.9138L89.1941 77.4233C89.6846 77.178 90.1751 76.9328 90.7883 76.9328C91.524 76.9328 92.3824 77.3007 92.3824 78.159C92.3824 78.7722 91.8919 79.1401 91.2788 79.2627C92.0145 79.2627 92.6277 79.7532 92.6277 80.489C92.6277 81.47 91.524 81.9605 90.543 81.9605C89.9299 81.9605 89.4394 81.8379 88.9489 81.5926L89.1941 80.9795C89.562 81.2247 90.0525 81.3474 90.4204 81.3474C91.1561 81.3474 91.6467 80.9795 91.6467 80.489C91.6467 79.8758 90.9109 79.6306 90.2978 79.6306H89.8072V79.0174H89.9299Z" fill="white"/>
<path d="M97.5328 77.0554V79.0174H99.8627V77.0554H100.721V81.8379H99.8627V79.6306H97.5328V81.8379H96.6744V77.0554H97.5328Z" fill="white"/>
<path d="M105.381 79.6306C105.381 80.8569 106.117 81.3474 106.975 81.3474C107.588 81.3474 107.956 81.2247 108.324 81.1021L108.447 81.7153C108.079 81.8379 107.588 81.9605 106.852 81.9605C105.381 81.9605 104.523 80.9795 104.523 79.508C104.523 78.0364 105.381 76.9328 106.73 76.9328C108.324 76.9328 108.692 78.2817 108.692 79.1401C108.692 79.2627 108.692 79.508 108.692 79.508H105.381V79.6306ZM107.956 78.8948C107.956 78.2817 107.711 77.4233 106.73 77.4233C105.871 77.4233 105.504 78.2817 105.381 78.8948H107.956Z" fill="white"/>
<path d="M116.172 81.5926C115.927 81.7153 115.436 81.8379 114.823 81.8379C113.352 81.8379 112.493 80.8569 112.493 79.3853C112.493 77.9138 113.474 76.8101 115.069 76.8101C115.559 76.8101 116.05 76.9328 116.295 77.0554L116.05 77.6685C115.804 77.5459 115.559 77.4233 115.069 77.4233C113.965 77.4233 113.352 78.2817 113.352 79.2627C113.352 80.3663 114.088 81.1021 115.069 81.1021C115.559 81.1021 115.927 80.9795 116.172 80.8569V81.5926Z" fill="white"/>
<path d="M122.058 78.7722V79.3853H119.606V78.7722H122.058Z" fill="white"/>
<path d="M129.293 81.5926C129.048 81.7153 128.558 81.8379 127.944 81.8379C126.473 81.8379 125.615 80.8569 125.615 79.3853C125.615 77.9138 126.596 76.8101 128.19 76.8101C128.68 76.8101 129.171 76.9328 129.416 77.0554L129.171 77.6685C128.926 77.5459 128.68 77.4233 128.19 77.4233C127.086 77.4233 126.473 78.2817 126.473 79.2627C126.473 80.3663 127.209 81.1021 128.19 81.1021C128.68 81.1021 129.048 80.9795 129.293 80.8569V81.5926Z" fill="white"/>
<path d="M133.708 77.0554L134.812 79.8758C134.934 80.2437 135.057 80.6116 135.18 80.8569C135.302 80.6116 135.425 80.2437 135.547 79.8758L136.528 77.0554H137.509L136.161 80.489C135.547 82.0831 135.057 82.9415 134.566 83.5547C134.198 83.9226 133.708 84.0452 133.463 84.1678L133.217 83.432C133.463 83.3094 133.708 83.1868 133.953 83.0642C134.198 82.8189 134.444 82.5736 134.689 82.0831C134.689 81.9605 134.812 81.9605 134.812 81.8379C134.812 81.8379 134.812 81.7153 134.812 81.5926L133.095 77.178H133.708V77.0554Z" fill="white"/>
<path d="M144.622 75.3386C144.377 75.4612 143.886 75.4612 143.641 75.5839C142.905 75.7065 142.292 75.9517 141.924 76.4423C141.556 76.9328 141.434 77.5459 141.434 78.0364C141.801 77.3007 142.415 76.9328 143.15 76.9328C144.377 76.9328 145.235 77.7912 145.235 79.2627C145.235 80.8569 144.377 81.8379 143.028 81.8379C141.311 81.8379 140.82 80.2437 140.82 78.6496C140.82 77.5459 141.066 76.6875 141.556 75.9517C142.047 75.3386 142.66 74.9707 143.641 74.8481C144.009 74.8481 144.499 74.7255 144.867 74.6028L144.622 75.3386ZM142.905 77.6685C142.415 77.6685 142.047 77.9138 141.801 78.2817C141.679 78.5269 141.556 78.8948 141.556 79.2627C141.556 79.9985 141.924 81.2247 142.905 81.2247C143.886 81.2247 144.254 80.2437 144.254 79.3853C144.131 78.6496 143.886 77.6685 142.905 77.6685Z" fill="white"/>
<path d="M152.593 75.3386C152.347 75.4612 151.857 75.4612 151.612 75.5839C150.876 75.7065 150.263 75.9517 149.895 76.4423C149.527 76.9328 149.404 77.5459 149.404 78.0364C149.772 77.3007 150.385 76.9328 151.121 76.9328C152.347 76.9328 153.206 77.7912 153.206 79.2627C153.206 80.8569 152.347 81.8379 150.998 81.8379C149.282 81.8379 148.791 80.2437 148.791 78.6496C148.791 77.5459 149.036 76.6875 149.527 75.9517C150.017 75.3386 150.631 74.9707 151.612 74.8481C151.98 74.8481 152.47 74.7255 152.838 74.6028L152.593 75.3386ZM150.876 77.6685C150.385 77.6685 150.017 77.9138 149.772 78.2817C149.65 78.5269 149.527 78.8948 149.527 79.2627C149.527 79.9985 149.895 81.2247 150.876 81.2247C151.857 81.2247 152.225 80.2437 152.225 79.3853C152.225 78.6496 151.98 77.6685 150.876 77.6685Z" fill="white"/>
<path d="M161.422 79.3853C161.422 81.1021 160.196 81.9605 159.092 81.9605C157.743 81.9605 156.762 80.9795 156.762 79.508C156.762 77.9138 157.866 76.9328 159.092 76.9328C160.441 76.9328 161.422 77.9138 161.422 79.3853ZM157.62 79.3853C157.62 80.489 158.233 81.2247 159.092 81.2247C159.95 81.2247 160.563 80.489 160.563 79.3853C160.563 78.5269 160.196 77.5459 159.092 77.5459C158.111 77.5459 157.62 78.5269 157.62 79.3853Z" fill="white"/>
<path d="M168.534 77.0554V77.7912H167.063V81.8379H166.204V77.7912H164.733V77.0554H168.534Z" fill="white"/>
<path d="M172.949 77.0554V79.0174H175.279V77.0554H176.137V81.8379H175.279V79.6306H172.949V81.8379H172.091V77.0554H172.949Z" fill="white"/>
<path d="M181.165 77.0554V79.0174C181.165 79.7532 181.165 80.2437 181.165 80.9795C181.41 80.3664 181.655 79.9985 181.901 79.508L183.372 77.0554H184.353V81.8379H183.495V79.7532C183.495 79.0174 183.495 78.5269 183.495 77.7912C183.127 78.4043 183.004 78.7722 182.759 79.2627C182.269 79.9985 181.778 80.9795 181.288 81.7153H180.307V76.9328H181.165V77.0554Z" fill="white"/>
<path d="M189.626 77.0554V79.1401H189.871L191.711 77.0554H192.815L190.73 79.2627C191.466 79.3853 191.956 79.8758 192.324 80.7342C192.447 81.1021 192.569 81.47 192.815 81.9605H191.956C191.834 81.7153 191.711 81.3474 191.466 80.9795C191.098 80.2437 190.73 79.8758 189.871 79.8758H189.749V81.9605H188.89V77.178H189.626V77.0554Z" fill="white"/>
<path d="M192.815 68.2262H72.2715V68.8393H192.815V68.2262Z" fill="white"/>
<path d="M49.708 81.47L46.0292 75.216L42.473 68.962L38.7941 62.5853L35.1153 56.3313L31.5591 49.9547L19.7868 29.8437H12.5518L27.8803 56.3313L31.5591 62.5853L35.1153 68.962L38.7941 75.216L42.473 81.47H42.3503H42.473H49.708Z" fill="white"/>
<path d="M37.9357 81.47L34.3795 75.216L30.7007 68.962L27.0219 62.5853L8.1372 29.8437H0.902161L23.4657 68.962L27.0219 75.216L30.7007 81.47H37.9357Z" fill="white"/>
<path d="M61.3576 81.47L57.8014 75.216L54.1226 68.962L50.4437 62.5853L46.8875 56.3313L43.2087 49.9547L39.5299 43.7007L35.9737 37.4466L31.5591 29.8437H24.324L32.2948 43.7007L39.5299 56.3313L43.2087 62.5853L46.8875 68.962L50.4437 75.216L54.1226 81.47H61.3576Z" fill="white"/>
<path d="M55.8394 0.167809L38.7941 29.4758L42.473 35.8525L63.0744 0.167809H55.8394Z" fill="white"/>
<path d="M79.5065 0.167809L50.689 50.0773L50.8116 50.1999L54.3678 56.4539L86.8642 0.167809H79.5065Z" fill="white"/>
<path d="M67.8569 0.167809L44.9255 39.7766V39.8992L48.6043 46.0306L75.0919 0.167809H67.8569Z" fill="white"/>
</svg>
