<svg width="160" height="48" viewBox="0 0 160 48" fill="none" xmlns="http://www.w3.org/2000/svg">
<g clip-path="url(#clip0)">
<path d="M141.452 0.325977L94.1935 47.9185H112.742L148.226 12.2241L160 24.1222V0.325977H141.452Z" fill="white"/>
<path d="M136.371 0.325977L124.597 12.2241L112.742 0.325977H136.371Z" fill="white"/>
<path d="M117.823 47.9185L148.226 17.2767L160 29.1749V47.9185L148.226 36.0204L136.371 47.9185H117.823Z" fill="white"/>
<path d="M7.41935 30.8048V14.8319L16.371 30.8048H25.1613L15.2419 14.5059L24.1935 0.325976H15.6452L7.41935 14.7504V0.325976H0V30.8048H7.41935ZM26.2097 21.2699C26.4516 22.8998 26.9355 24.3667 27.6613 25.5891C28.3065 26.8115 29.1936 27.7895 30.1613 28.6044C31.2097 29.4194 32.3387 29.9898 33.5484 30.3973C34.8387 30.8048 36.2097 30.9677 37.5806 30.9677C39.3548 30.9677 40.8871 30.6418 42.2581 30.0713C43.629 29.5009 44.8387 28.6044 45.9677 27.545C46.7742 26.7301 47.3387 25.8336 47.8226 24.9372C48.2258 24.0407 48.5484 23.0628 48.7097 22.0034C48.871 20.944 48.9516 19.8846 49.0323 18.8251C49.0323 17.7657 49.0323 16.6248 49.0323 15.4839C49.0323 14.343 49.0323 13.202 49.0323 12.1426C49.0323 11.0017 48.871 9.94228 48.7097 8.96435C48.5484 7.90492 48.2258 7.00849 47.8226 6.03056C47.4194 5.13413 46.7742 4.23769 45.9677 3.42275C44.8387 2.28183 43.629 1.46689 42.2581 0.896435C40.9677 0.325976 39.3548 0 37.5806 0C36.129 0 34.7581 0.244482 33.5484 0.570458C32.2581 0.977929 31.129 1.62988 30.1613 2.44482C29.1129 3.25976 28.3065 4.23769 27.6613 5.4601C27.0161 6.68251 26.5323 8.14941 26.2097 9.77929H33.629C33.7903 9.20883 34.0323 8.63837 34.3548 8.14941C34.6774 7.66044 35.0806 7.25297 35.6452 7.00849C36.129 6.68251 36.7742 6.51952 37.5806 6.51952C38.3064 6.51952 38.871 6.68251 39.4355 6.92699C39.9194 7.17148 40.3226 7.49745 40.6452 7.90492C40.8065 8.14941 40.9677 8.39389 41.129 8.71986C41.2903 9.04584 41.371 9.45331 41.5323 10.0238C41.6129 10.5942 41.6935 11.3277 41.7742 12.2241H33.7097V18.7436H41.7742C41.6935 19.4771 41.6935 20.0475 41.6129 20.5365C41.5323 21.0255 41.4516 21.4329 41.371 21.7589C41.2903 22.0849 41.129 22.3294 41.0484 22.5739C40.9677 22.8183 40.8065 22.9813 40.6452 23.1443C40.3226 23.5518 39.9194 23.8778 39.4355 24.1222C38.9516 24.3667 38.3064 24.5297 37.5806 24.5297C36.7742 24.5297 36.0484 24.3667 35.5645 24.0407C35.0806 23.7148 34.5968 23.3888 34.2742 22.8998C33.9516 22.4109 33.7097 21.8404 33.5484 21.2699H26.2097ZM78.3064 30.8048L67.3387 0.325976H61.6129L50.5645 30.8048H58.3871L59.8387 26.2411H69.1936L70.5645 30.8048H78.3064ZM67.1774 19.966H61.9355L64.6774 11.8166L67.1774 19.966ZM91.2903 31.0492C92.9032 31.0492 94.4355 30.8048 95.8065 30.3973C97.1774 29.9898 98.3871 29.3379 99.3548 28.5229C100.323 27.708 101.129 26.7301 101.694 25.5891C102.258 24.4482 102.5 23.1443 102.5 21.7589C102.5 20.6995 102.339 19.8031 101.935 18.9066C101.613 18.0102 101.129 17.2767 100.484 16.6248C99.8387 15.9728 99.1936 15.4839 98.3871 15.0764C99.1129 14.6689 99.6774 14.0985 100.242 13.4465C100.806 12.7946 101.21 12.0611 101.532 11.2462C101.855 10.4312 102.016 9.6163 102.016 8.63837C102.016 7.33447 101.774 6.11205 101.21 5.05263C100.726 3.99321 99.9193 3.09677 98.9516 2.36333C97.9839 1.62988 96.8548 1.05942 95.5645 0.651952C94.2742 0.244482 92.8226 0 91.2903 0C89.8387 0 88.4677 0.244482 87.2581 0.570458C85.9677 0.977929 84.8387 1.54839 83.871 2.36333C82.8226 3.17827 82.0161 4.1562 81.371 5.37861C80.5645 6.68251 80.0806 8.14941 79.8387 9.77929H87.2581C87.4193 9.20883 87.6613 8.63837 87.9839 8.14941C88.3064 7.66044 88.7097 7.25297 89.2742 6.92699C89.8387 6.60102 90.4839 6.43803 91.2903 6.43803C92.0161 6.43803 92.5807 6.51952 93.0645 6.76401C93.5484 7.00849 93.9516 7.33447 94.1936 7.74194C94.4355 8.14941 94.5968 8.63837 94.5968 9.20883C94.5968 10.1053 94.2742 10.8387 93.7097 11.3277C93.1452 11.8166 92.3387 12.1426 91.2903 12.1426H87.2581V18.2547H91.2903C92.1774 18.2547 92.8226 18.4177 93.3871 18.6621C93.9516 18.9066 94.3548 19.3141 94.5968 19.8031C94.8387 20.292 95 20.8625 95 21.4329C95 22.0034 94.8387 22.5739 94.5968 22.9813C94.3548 23.4703 93.871 23.7963 93.3064 24.0407C92.7419 24.2852 92.0968 24.4482 91.2097 24.4482C90.4032 24.4482 89.7581 24.2852 89.1936 23.9593C88.629 23.6333 88.2258 23.3073 87.9032 22.8183C87.5806 22.3294 87.3387 21.7589 87.1774 21.1885H79.8387C80.0806 22.8183 80.5645 24.2852 81.2903 25.5076C81.9355 26.7301 82.8226 27.708 83.7903 28.5229C84.7581 29.3379 85.9677 29.9083 87.1774 30.3158C88.4677 30.8048 89.8387 31.0492 91.2903 31.0492Z" fill="white"/>
<path d="M3.14516 41.073C3.14516 40.91 3.14516 40.747 3.14516 40.584C3.14516 40.4211 3.06452 40.2581 2.98387 40.0951C2.90323 39.9321 2.82258 39.8506 2.66129 39.7691C2.5 39.6876 2.33871 39.6061 2.09677 39.6061C1.85484 39.6061 1.6129 39.6876 1.53226 39.7691C1.37097 39.9321 1.29032 40.0136 1.20968 40.2581C1.12903 40.4211 1.12903 40.584 1.04839 40.8285C1.04839 40.9915 1.04839 41.1545 1.04839 41.3175V45.7182C1.04839 45.8812 1.04839 45.9627 1.04839 46.1256C1.04839 46.2886 1.12903 46.4516 1.20968 46.5331C1.29032 46.6961 1.37097 46.7776 1.53226 46.8591C1.69355 46.9406 1.85484 47.0221 2.09677 47.0221C2.33871 47.0221 2.5 46.9406 2.66129 46.8591C2.82258 46.7776 2.90323 46.6961 2.98387 46.5331C3.06452 46.3701 3.14516 46.2071 3.14516 46.0441C3.14516 45.8812 3.22581 45.7182 3.22581 45.4737V41.073H3.14516ZM4.19355 45.4737C4.19355 46.2886 4.03226 46.9406 3.70968 47.348C3.3871 47.7555 2.82258 48 2.09677 48C1.37097 48 0.806452 47.7555 0.483871 47.348C0.16129 46.9406 0 46.4516 0 45.7182V41.236C0 40.91 0 40.584 0.0806452 40.2581C0.16129 39.9321 0.241935 39.6876 0.403226 39.4431C0.564516 39.1986 0.806452 39.0357 1.04839 38.8727C1.29032 38.7097 1.69355 38.6282 2.09677 38.6282C2.58065 38.6282 2.90323 38.7097 3.22581 38.7912C3.46774 38.9542 3.70968 39.1172 3.87097 39.3616C4.03226 39.6061 4.1129 39.8506 4.19355 40.1766C4.27419 40.5026 4.27419 40.8285 4.27419 41.1545V45.4737H4.19355Z" fill="white"/>
<path d="M9.03225 38.7097C9.75805 38.7097 10.2419 38.8727 10.5645 39.2801C10.8871 39.6876 11.0484 40.1766 11.0484 40.8285L9.99999 40.9915C9.99999 40.584 9.91934 40.2581 9.75805 40.0136C9.59676 39.7691 9.35483 39.6876 8.9516 39.6876C8.70967 39.6876 8.54838 39.7691 8.46773 39.8506C8.30644 39.9321 8.2258 40.0951 8.14515 40.1766C8.06451 40.3396 7.98386 40.5025 7.98386 40.6655C7.98386 40.8285 7.98386 40.9915 7.98386 41.1545V45.7997C7.98386 45.9626 7.98386 46.0441 7.98386 46.2071C7.98386 46.3701 8.06451 46.5331 8.14515 46.6146C8.2258 46.7776 8.30644 46.8591 8.46773 46.9406C8.62902 47.0221 8.79031 47.1036 8.9516 47.1036C9.27418 47.1036 9.51612 47.0221 9.67741 46.7776C9.8387 46.5331 9.91934 46.2071 9.91934 45.7997L10.9677 45.9626C10.9677 46.6146 10.8064 47.1036 10.4032 47.511C10.0806 47.9185 9.59676 48.0815 8.87096 48.0815C8.14515 48.0815 7.66128 47.9185 7.3387 47.511C7.01612 47.1036 6.85483 46.6146 6.85483 45.8811V41.399C6.85483 41.073 6.85483 40.747 6.93547 40.421C7.01612 40.0951 7.09676 39.8506 7.25805 39.6061C7.41934 39.3616 7.58063 39.1986 7.90322 39.0356C8.2258 38.7912 8.62902 38.7097 9.03225 38.7097Z" fill="white"/>
<path d="M16.7742 47.9185V43.6808H14.6774V47.9185H13.629V38.7912H14.6774V42.7844H16.7742V38.7912H17.8226V47.9185H16.7742Z" fill="white"/>
<path d="M23.7903 41.073C23.7903 40.91 23.7903 40.747 23.7903 40.584C23.7903 40.4211 23.7097 40.2581 23.629 40.0951C23.5484 39.9321 23.4678 39.8506 23.3065 39.7691C23.1452 39.6876 22.9839 39.6061 22.7419 39.6061C22.5 39.6061 22.2581 39.6876 22.1774 39.7691C22.0161 39.9321 21.9355 40.0136 21.8548 40.2581C21.7742 40.4211 21.7742 40.584 21.6936 40.8285C21.6936 40.9915 21.6936 41.1545 21.6936 41.3175V45.7182C21.6936 45.8812 21.6936 45.9627 21.6936 46.1256C21.6936 46.2886 21.7742 46.4516 21.8548 46.5331C21.9355 46.6961 22.0161 46.7776 22.1774 46.8591C22.3387 46.9406 22.5 47.0221 22.7419 47.0221C22.9839 47.0221 23.1452 46.9406 23.3065 46.8591C23.4678 46.7776 23.5484 46.6961 23.629 46.5331C23.7097 46.3701 23.7903 46.2071 23.7903 46.0441C23.7903 45.8812 23.871 45.7182 23.871 45.4737V41.073H23.7903ZM24.8387 45.4737C24.8387 46.2886 24.6774 46.9406 24.3548 47.348C24.0323 47.7555 23.4678 48 22.7419 48C22.0161 48 21.4516 47.7555 21.129 47.348C20.8065 46.9406 20.6452 46.3701 20.6452 45.7182V41.236C20.6452 40.91 20.6452 40.584 20.7258 40.2581C20.8065 39.9321 20.8871 39.6876 21.0484 39.4431C21.2097 39.1986 21.4516 39.0357 21.6936 38.8727C21.9355 38.7097 22.3387 38.6282 22.7419 38.6282C23.2258 38.6282 23.5484 38.7097 23.871 38.7912C24.1129 38.9542 24.3548 39.1172 24.5161 39.3616C24.6774 39.6061 24.7581 39.8506 24.8387 40.1766C24.9194 40.5026 24.9194 40.8285 24.9194 41.1545V45.4737H24.8387Z" fill="white"/>
<path d="M30.8065 45.1477C30.8065 44.6587 30.7258 44.2513 30.5645 44.0068C30.4032 43.7623 30 43.5993 29.5161 43.5993H28.7903V47.0221H29.5968C29.9194 47.0221 30.0807 46.9406 30.2419 46.8591C30.4032 46.7776 30.5645 46.6146 30.6452 46.4516C30.7258 46.2886 30.8065 46.0441 30.8065 45.8812C30.8065 45.6367 30.8065 45.3922 30.8065 45.1477ZM30.8065 41.1545C30.8065 40.6655 30.7258 40.3396 30.4839 40.0951C30.2419 39.8506 29.9194 39.6876 29.4355 39.6876H28.7097V42.6214H29.4355C29.9194 42.6214 30.2419 42.4584 30.4839 42.2139C30.6452 42.0509 30.8065 41.6435 30.8065 41.1545ZM30.8065 43.1104C31.2097 43.2733 31.4516 43.5178 31.6129 43.8438C31.7742 44.2513 31.8548 44.6587 31.8548 45.2292C31.8548 46.2071 31.6936 46.8591 31.2903 47.2666C30.8871 47.674 30.3226 47.9185 29.5161 47.9185H27.7419V38.7912H29.6774C30.4839 38.7912 31.0484 39.0357 31.371 39.4431C31.6936 39.8506 31.8548 40.421 31.8548 41.236C31.8548 41.725 31.7742 42.1324 31.6129 42.3769C31.371 42.6214 31.129 42.8659 30.8065 43.1104Z" fill="white"/>
<path d="M36.5323 40.6655L36.129 42.7844L35.7258 44.9032H37.4193L37.0161 42.7029L36.5323 40.6655ZM37.9839 47.9185L37.5806 45.8812H35.5645L35.1613 47.9185H34.1935L36.129 38.7912H37.0968L39.0323 47.9185H37.9839Z" fill="white"/>
<path d="M44.5161 47.9185V43.6808H42.4194V47.9185H41.371V38.7912H42.4194V42.7844H44.5161V38.7912H45.5645V47.9185H44.5161Z" fill="white"/>
<path d="M55.7258 45.1477C55.7258 44.6587 55.6452 44.2513 55.4839 44.0068C55.3226 43.7623 54.9193 43.5993 54.4355 43.5993H53.7097V47.0221H54.5161C54.8387 47.0221 55 46.9406 55.1613 46.8591C55.3226 46.7776 55.4839 46.6146 55.5645 46.4516C55.6452 46.2886 55.7258 46.0441 55.7258 45.8812C55.7258 45.6367 55.7258 45.3922 55.7258 45.1477ZM55.6452 41.1545C55.6452 40.6655 55.5645 40.3396 55.3226 40.0951C55.0806 39.8506 54.7581 39.6876 54.2742 39.6876H53.5484V42.6214H54.2742C54.7581 42.6214 55.0806 42.4584 55.3226 42.2139C55.5645 42.0509 55.6452 41.6435 55.6452 41.1545ZM55.7258 43.1104C56.129 43.2733 56.371 43.5178 56.5322 43.8438C56.6935 44.2513 56.7742 44.6587 56.7742 45.2292C56.7742 46.2071 56.6129 46.8591 56.2097 47.2666C55.8064 47.674 55.2419 47.9185 54.4355 47.9185H52.6613V38.7912H54.5968C55.4032 38.7912 55.9677 39.0357 56.2903 39.4431C56.6129 39.8506 56.7742 40.421 56.7742 41.236C56.7742 41.725 56.6935 42.1324 56.5322 42.3769C56.2903 42.6214 56.0484 42.8659 55.7258 43.1104Z" fill="white"/>
<path d="M65.6452 47.9185V39.8506L64.2742 40.91V39.8506L65.5645 38.7912H66.6129V47.9185H65.6452Z" fill="white"/>
<path d="M71.2097 42.3769C71.2097 42.6214 71.2903 42.7844 71.4516 42.9474C71.6129 43.1104 71.7742 43.1104 72.0161 43.1104C72.1774 43.1104 72.3387 43.1103 72.4194 43.0289C72.5 42.9474 72.5806 42.8659 72.6613 42.7844C72.7419 42.7029 72.7419 42.6214 72.8226 42.4584C72.8226 42.3769 72.8226 42.2139 72.8226 42.1324V40.3396C72.8226 40.0951 72.7419 39.9321 72.5806 39.7691C72.4194 39.6061 72.2581 39.6061 72.0161 39.6061C71.7742 39.6061 71.6129 39.6876 71.4516 39.7691C71.2903 39.9321 71.2097 40.0951 71.2097 40.3396V42.3769ZM72.3387 43.8438C72.1774 44.0068 71.9355 44.0883 71.6935 44.0883C71.371 44.0883 71.2097 44.0068 70.9677 43.9253C70.8064 43.8438 70.6452 43.6808 70.4839 43.5178C70.4032 43.3548 70.3226 43.1918 70.2419 42.9474C70.1613 42.7844 70.1613 42.5399 70.1613 42.3769V40.421C70.1613 40.0951 70.2419 39.8506 70.3226 39.6876C70.4032 39.4431 70.5645 39.2801 70.7258 39.1171C70.8871 38.9542 71.129 38.8727 71.2903 38.7912C71.5323 38.7097 71.7742 38.7097 72.0161 38.7097C72.5806 38.7097 73.0645 38.8727 73.3871 39.1171C73.7097 39.4431 73.871 39.8506 73.871 40.421V41.9694C73.871 42.3769 73.871 42.7029 73.7903 42.9474C73.7097 43.1918 73.7097 43.4363 73.629 43.6808L71.9355 47.9185H70.8871L72.3387 43.8438Z" fill="white"/>
<path d="M80 46.4516V47.9185H79.0323V46.4516H76.371V45.5552L78.2258 38.7912H79.2742L77.3387 45.5552H79.0323V43.0289H80V45.5552H80.6452V46.4516H80Z" fill="white"/>
<path d="M85 48C84.6774 48 84.3549 47.9185 84.1129 47.837C83.871 47.7555 83.7097 47.5925 83.5484 47.4295C83.3871 47.2666 83.3065 47.0221 83.2258 46.7776C83.1452 46.5331 83.1452 46.2071 83.1452 45.9626L84.1936 45.7997C84.1936 45.9626 84.1936 46.2071 84.1936 46.2886C84.1936 46.4516 84.2742 46.6146 84.2742 46.6961C84.3549 46.7776 84.4355 46.9406 84.5161 46.9406C84.5968 47.0221 84.7581 47.0221 85 47.0221C85.242 47.0221 85.4032 46.9406 85.5645 46.7776C85.7258 46.6146 85.8065 46.3701 85.8065 46.0441V43.6808C85.8065 43.1918 85.5645 42.8659 85.0807 42.8659C84.9194 42.8659 84.6774 42.9474 84.5968 43.0289C84.4355 43.1104 84.3549 43.2733 84.2742 43.4363H83.3871V38.7912H86.9355V39.6876H84.3549V42.4584H84.4355C84.5968 42.2954 84.7581 42.2139 84.9194 42.1324C85.0807 42.0509 85.3226 42.0509 85.4839 42.0509C85.9678 42.0509 86.371 42.2139 86.6129 42.4584C86.8549 42.7844 86.9355 43.1104 86.9355 43.5178V45.9626C86.9355 46.2886 86.8549 46.6146 86.7742 46.8591C86.6936 47.1036 86.5323 47.348 86.371 47.4295C86.2097 47.5925 85.9678 47.674 85.8065 47.7555C85.4839 48 85.242 48 85 48Z" fill="white"/>
</g>
<defs>
<clipPath id="clip0">
<rect width="160" height="48" fill="white"/>
</clipPath>
</defs>
</svg>
