<svg width="87" height="82" viewBox="0 0 87 82" fill="none" xmlns="http://www.w3.org/2000/svg">
<path d="M49.708 81.47L46.0292 75.216L42.473 68.962L38.7941 62.5853L35.1153 56.3313L31.5591 49.9547L19.7868 29.8437H12.5518L27.8803 56.3313L31.5591 62.5853L35.1153 68.962L38.7941 75.216L42.473 81.47H42.3503H42.473H49.708Z" fill="white"/>
<path d="M37.9357 81.47L34.3795 75.216L30.7007 68.962L27.0219 62.5853L8.1372 29.8437H0.902161L23.4657 68.962L27.0219 75.216L30.7007 81.47H37.9357Z" fill="white"/>
<path d="M61.3576 81.47L57.8014 75.216L54.1226 68.962L50.4437 62.5853L46.8875 56.3313L43.2087 49.9547L39.5299 43.7007L35.9737 37.4466L31.5591 29.8437H24.324L32.2948 43.7007L39.5299 56.3313L43.2087 62.5853L46.8875 68.962L50.4437 75.216L54.1226 81.47H61.3576Z" fill="white"/>
<path d="M55.8394 0.167809L38.7941 29.4758L42.473 35.8525L63.0744 0.167809H55.8394Z" fill="white"/>
<path d="M79.5065 0.167809L50.689 50.0773L50.8116 50.1999L54.3678 56.4539L86.8642 0.167809H79.5065Z" fill="white"/>
<path d="M67.8569 0.167809L44.9255 39.7766V39.8992L48.6043 46.0306L75.0919 0.167809H67.8569Z" fill="white"/>
</svg>
