<svg width="65" height="65" viewBox="0 0 65 65" fill="none" xmlns="http://www.w3.org/2000/svg">
<g clip-path="url(#clip0)">
<path d="M36.851 47.5954L36.0631 47.4357C34.4493 47.1085 33.1951 45.8543 32.8679 44.2404L32.7081 43.4524C32.5239 42.5444 31.7484 41.9102 30.8218 41.9102C29.8951 41.9102 29.1196 42.5443 28.9354 43.4525L28.7756 44.2404C28.4485 45.8543 27.1943 47.1085 25.5804 47.4357L24.7925 47.5955C23.8845 47.7797 23.2501 48.5553 23.2501 49.4819C23.2501 50.4084 23.8844 51.184 24.7925 51.3683L25.5804 51.528C27.1943 51.8552 28.4485 53.1094 28.7756 54.7233L28.9354 55.5113C29.1196 56.4193 29.8951 57.0535 30.8218 57.0535C31.7484 57.0535 32.5239 56.4194 32.7081 55.5113L32.8679 54.7233C33.195 53.1094 34.4493 51.8552 36.0631 51.528L36.851 51.3683C37.759 51.1842 38.3934 50.4085 38.3934 49.4819C38.3934 48.5554 37.7591 47.7795 36.851 47.5954ZM36.4889 49.499C36.485 49.5004 36.4798 49.5018 36.473 49.5033L35.6851 49.663C33.3204 50.1425 31.4826 51.9803 31.0031 54.345L30.8434 55.1329C30.842 55.1397 30.8408 55.1448 30.8395 55.1488C30.8293 55.151 30.8149 55.151 30.8046 55.1488C30.8035 55.145 30.802 55.1398 30.8008 55.1329L30.641 54.3449C30.1615 51.9802 28.3238 50.1423 25.9589 49.6629L25.171 49.5032C25.1642 49.5018 25.1591 49.5004 25.1551 49.4993C25.1529 49.489 25.1529 49.4747 25.1551 49.4644C25.1589 49.4632 25.1641 49.4618 25.171 49.4605L25.9589 49.3007C28.3238 48.8213 30.1615 46.9834 30.641 44.6187L30.8008 43.8308C30.8021 43.824 30.8035 43.8188 30.8046 43.8149C30.8149 43.8127 30.8293 43.8127 30.8395 43.8149C30.8406 43.8187 30.8421 43.8239 30.8434 43.8308L31.0031 44.6187C31.4826 46.9834 33.3204 48.8213 35.6851 49.3007L36.473 49.4604C36.4798 49.4618 36.4849 49.4632 36.4889 49.4643C36.4911 49.4744 36.4911 49.4888 36.4889 49.499Z" fill="#FF5100"/>
<path d="M49.7299 51.0579C49.2046 51.0579 48.7786 51.4839 48.7786 52.0092V54.5854C48.7786 55.1107 49.2046 55.5367 49.7299 55.5367C50.2553 55.5367 50.6813 55.1107 50.6813 54.5854V52.0092C50.6813 51.4839 50.2553 51.0579 49.7299 51.0579Z" fill="#FF5100"/>
<path d="M49.7299 57.9932C49.2046 57.9932 48.7786 58.4192 48.7786 58.9445V61.5207C48.7786 62.046 49.2046 62.472 49.7299 62.472C50.2553 62.472 50.6813 62.046 50.6813 61.5207V58.9445C50.6813 58.4192 50.2553 57.9932 49.7299 57.9932Z" fill="#FF5100"/>
<path d="M54.4859 55.8135H51.9097C51.3844 55.8135 50.9584 56.2395 50.9584 56.7649C50.9584 57.2902 51.3844 57.7162 51.9097 57.7162H54.4859C55.0112 57.7162 55.4372 57.2902 55.4372 56.7649C55.4372 56.2395 55.0112 55.8135 54.4859 55.8135Z" fill="#FF5100"/>
<path d="M47.5503 55.8135H44.9742C44.4488 55.8135 44.0228 56.2395 44.0228 56.7649C44.0228 57.2902 44.4488 57.7162 44.9742 57.7162H47.5503C48.0757 57.7162 48.5017 57.2902 48.5017 56.7649C48.5017 56.2395 48.0757 55.8135 47.5503 55.8135Z" fill="#FF5100"/>
<path d="M6.52504 39.0698C5.99967 39.0698 5.57367 39.4958 5.57367 40.0212V42.5973C5.57367 43.1228 5.99967 43.5487 6.52504 43.5487C7.05042 43.5487 7.47642 43.1227 7.47642 42.5973V40.0212C7.47642 39.4958 7.05054 39.0698 6.52504 39.0698Z" fill="#FF5100"/>
<path d="M6.52504 46.0054C5.99967 46.0054 5.57367 46.4314 5.57367 46.9567V49.5329C5.57367 50.0584 5.99967 50.4842 6.52504 50.4842C7.05042 50.4842 7.47642 50.0582 7.47642 49.5329V46.9567C7.47642 46.4314 7.05054 46.0054 6.52504 46.0054Z" fill="#FF5100"/>
<path d="M11.2809 43.8257H8.70479C8.17929 43.8257 7.75342 44.2517 7.75342 44.7771C7.75342 45.3024 8.17942 45.7284 8.70479 45.7284H11.2809C11.8063 45.7284 12.2323 45.3024 12.2323 44.7771C12.2323 44.2517 11.8063 43.8257 11.2809 43.8257Z" fill="#FF5100"/>
<path d="M4.34543 43.8257H1.76931C1.24381 43.8257 0.817932 44.2517 0.817932 44.7771C0.817932 45.3024 1.24393 45.7284 1.76931 45.7284H4.34543C4.87093 45.7284 5.29681 45.3024 5.29681 44.7771C5.29681 44.2517 4.87081 43.8257 4.34543 43.8257Z" fill="#FF5100"/>
<path d="M49.8532 1.87646C49.3279 1.87646 48.9019 2.30246 48.9019 2.82784V5.40396C48.9019 5.92934 49.3279 6.35534 49.8532 6.35534C50.3786 6.35534 50.8046 5.92934 50.8046 5.40396V2.82796C50.8047 2.30246 50.3787 1.87646 49.8532 1.87646Z" fill="#FF5100"/>
<path d="M49.8532 8.81201C49.3279 8.81201 48.9019 9.23801 48.9019 9.76339V12.3395C48.9019 12.8649 49.3279 13.2908 49.8532 13.2908C50.3786 13.2908 50.8046 12.8648 50.8046 12.3394V9.76351C50.8047 9.23801 50.3787 8.81201 49.8532 8.81201Z" fill="#FF5100"/>
<path d="M54.6092 6.63208H52.033C51.5075 6.63208 51.0817 7.05808 51.0817 7.58346C51.0817 8.10883 51.5077 8.53483 52.033 8.53483H54.6092C55.1347 8.53483 55.5605 8.10883 55.5605 7.58346C55.5605 7.05808 55.1345 6.63208 54.6092 6.63208Z" fill="#FF5100"/>
<path d="M47.6737 6.63208H45.0976C44.5721 6.63208 44.1462 7.05808 44.1462 7.58346C44.1462 8.10883 44.5722 8.53483 45.0976 8.53483H47.6737C48.1991 8.53483 48.6251 8.10883 48.6251 7.58346C48.6251 7.05808 48.1992 6.63208 47.6737 6.63208Z" fill="#FF5100"/>
<path d="M37.0883 14.9277L33.317 14.163C29.9679 13.484 27.365 10.8812 26.686 7.53206L25.9214 3.76083C25.667 2.50608 24.636 1.66309 23.3558 1.66309C22.0756 1.66309 21.0444 2.50621 20.79 3.76083L20.0254 7.53206C19.3464 10.8812 16.7435 13.484 13.3944 14.163L9.62319 14.9277C8.36845 15.182 7.52545 16.2132 7.52545 17.4933C7.52545 18.7735 8.36857 19.8046 9.62319 20.0589L13.3944 20.8234C16.7435 21.5024 19.3464 24.1052 20.0254 27.4544L20.79 31.2256C21.0444 32.4803 22.0755 33.3233 23.3558 33.3233C24.636 33.3233 25.667 32.4802 25.9214 31.2256L26.686 27.4544C27.365 24.1052 29.9679 21.5023 33.317 20.8234L37.0883 20.0589C38.3431 19.8045 39.1861 18.7734 39.1861 17.4933C39.1861 16.2133 38.3431 15.1822 37.0883 14.9277ZM36.7103 18.1941L32.9391 18.9588C28.839 19.79 25.6525 22.9764 24.8213 27.0766L24.0566 30.8478C23.9488 31.3795 23.493 31.4208 23.3559 31.4208C23.2188 31.4208 22.7629 31.3795 22.6551 30.8478L21.8905 27.0766C21.0593 22.9765 17.8729 19.79 13.7727 18.9588L10.0014 18.1941C9.46982 18.0863 9.42844 17.6305 9.42844 17.4934C9.42844 17.3563 9.46982 16.9004 10.0014 16.7925L13.7727 16.028C17.8728 15.1968 21.0593 12.0103 21.8905 7.91031L22.6551 4.13908C22.763 3.60745 23.2188 3.56608 23.3559 3.56608C23.493 3.56608 23.9488 3.60745 24.0566 4.13908L24.8213 7.91031C25.6525 12.0104 28.839 15.1969 32.9391 16.028L36.7103 16.7925C37.242 16.9004 37.2833 17.3561 37.2833 17.4934C37.2833 17.6306 37.242 18.0864 36.7103 18.1941Z" fill="#FF5100"/>
<path d="M63.03 28.9853L60.1337 28.3981C57.6488 27.8942 55.7175 25.9631 55.2138 23.4781L54.6265 20.5818C54.4131 19.5292 53.5139 18.7939 52.4399 18.7939C51.3658 18.7939 50.4665 19.5292 50.2531 20.5818L49.6659 23.4781C49.1621 25.9631 47.231 27.8942 44.7459 28.3981L41.8496 28.9853C40.797 29.1987 40.0618 30.0979 40.0618 31.1721C40.0618 32.2462 40.7969 33.1453 41.8496 33.3588L44.7459 33.9461C47.2309 34.4498 49.1621 36.3811 49.6659 38.8659L50.2531 41.7622C50.4666 42.8148 51.3658 43.5501 52.44 43.5501C53.5141 43.5501 54.4133 42.8148 54.6266 41.7622L55.2139 38.8659C55.7176 36.3809 57.6489 34.4498 60.1339 33.9461L63.0301 33.3588C64.0827 33.1453 64.818 32.2462 64.818 31.1721C64.818 30.0979 64.0826 29.1988 63.03 28.9853ZM62.6517 31.4938L59.7555 32.0811C56.5196 32.7372 54.0048 35.2519 53.3488 38.4878L52.7615 41.3841C52.7261 41.5586 52.6179 41.6472 52.4396 41.6472C52.2614 41.6472 52.1531 41.5587 52.1178 41.3841L51.5305 38.4878C50.8745 35.2518 48.3596 32.7371 45.1238 32.0811L42.2275 31.4938C42.053 31.4584 41.9644 31.3501 41.9644 31.1719C41.9644 30.9938 42.0529 30.8854 42.2275 30.8501L45.1238 30.2628C48.3598 29.6067 50.8745 27.0919 51.5305 23.8561L52.1178 20.9598C52.1531 20.7853 52.2615 20.6967 52.4396 20.6967C52.6178 20.6967 52.7261 20.7852 52.7615 20.9598L53.3488 23.8561C54.0049 27.0919 56.5196 29.6068 59.7555 30.2628L62.6517 30.8501C62.8262 30.8854 62.9149 30.9938 62.9149 31.1719C62.9149 31.3501 62.8265 31.4584 62.6517 31.4938Z" fill="#FF5100"/>
</g>
<defs>
<clipPath id="clip0">
<rect width="64" height="64" fill="white" transform="translate(0.817932 0.067627)"/>
</clipPath>
</defs>
</svg>
