<svg width="65" height="65" viewBox="0 0 65 65" fill="none" xmlns="http://www.w3.org/2000/svg">
<path d="M54.7736 2.4931C54.5133 2.23285 54.1596 2.08822 53.7915 2.09212C53.4247 2.09472 53.0735 2.23805 52.8098 2.4931L33.0041 22.298L32.9491 22.3538L32.9214 22.3816C32.8941 22.4231 32.8525 22.4647 32.8248 22.5058C32.8248 22.5197 32.8109 22.5197 32.8109 22.5335C32.7832 22.5747 32.7689 22.6028 32.7417 22.644C32.7274 22.6578 32.7274 22.6721 32.7139 22.6855C32.7001 22.7271 32.6867 22.7548 32.6724 22.7964C32.6724 22.8102 32.6585 22.8102 32.6585 22.8237L29.1315 33.4597C28.9626 33.9546 29.0912 34.5033 29.4641 34.8705C29.7252 35.1281 30.0781 35.2723 30.4453 35.2714C30.5956 35.2684 30.745 35.2455 30.8883 35.2022L41.4966 31.6617C41.51 31.6617 41.51 31.6617 41.5239 31.6479C41.5676 31.6353 41.61 31.6167 41.6481 31.5929C41.659 31.5912 41.6689 31.5864 41.6763 31.5786C41.7174 31.5513 41.7729 31.5236 41.8144 31.4955C41.8556 31.4677 41.8971 31.4262 41.9387 31.3989C41.953 31.3855 41.9664 31.3855 41.9664 31.3712C41.9803 31.3573 42.008 31.3435 42.0223 31.3162L61.8406 11.497C62.1 11.2381 62.2455 10.8873 62.2455 10.5218C62.2455 10.1559 62.1 9.80474 61.8406 9.54666L54.7736 2.4931ZM34.5812 25.8388L38.4953 29.753L32.6308 31.7029L34.5812 25.8388ZM41.054 28.3976L35.9365 23.2805L53.7915 5.42512L58.9086 10.5422L41.054 28.3976Z" fill="#FF5100"/>
<path d="M51.5095 27.9412C50.7465 27.9434 50.1286 28.5613 50.1264 29.3243V55.1738C50.1199 57.4624 48.2666 59.3157 45.9772 59.3231H9.16085C6.87231 59.3157 5.01809 57.4624 5.01159 55.1738V18.3566C5.01809 16.0681 6.87231 14.2143 9.16085 14.2073H35.0095C35.7738 14.2073 36.3926 13.5881 36.3926 12.8242C36.3926 12.0604 35.7738 11.4412 35.0095 11.4412H9.16085C5.34199 11.4429 2.24715 14.5382 2.24542 18.3566V55.1738C2.24715 58.9922 5.34199 62.0875 9.16085 62.0888H45.9772C49.796 62.0875 52.8913 58.9922 52.8926 55.1738V29.3243C52.8904 28.5613 52.2725 27.9434 51.5095 27.9412Z" fill="#FF5100"/>
</svg>
