<svg width="33" height="33" viewBox="0 0 33 33" fill="none" xmlns="http://www.w3.org/2000/svg">
<g clip-path="url(#clip0)">
<path d="M16.3954 7.36035C14.1402 7.36035 12.3046 9.19595 12.3046 11.4512C12.3046 13.7064 14.1402 15.542 16.3954 15.542C18.6506 15.542 20.4862 13.7064 20.4862 11.4512C20.4862 9.19595 18.6506 7.36035 16.3954 7.36035ZM16.3954 14.3732C14.7842 14.3732 13.4734 13.0623 13.4734 11.4512C13.4734 9.83996 14.7842 8.52915 16.3954 8.52915C18.0066 8.52915 19.3174 9.83996 19.3174 11.4512C19.3174 13.0623 18.0066 14.3732 16.3954 14.3732Z" fill="white"/>
<path d="M24.2164 3.63011C22.0997 1.51341 19.2853 0.347534 16.292 0.347534C13.2981 0.347534 10.4842 1.51341 8.36749 3.63011C4.45026 7.54676 3.96345 14.916 7.31324 19.3809L16.292 32.3475L25.2572 19.399C28.6205 14.916 28.1337 7.54676 24.2164 3.63011ZM24.3093 18.7158L16.292 30.294L8.26172 18.6977C5.22342 14.6466 5.6588 7.99149 9.19442 4.45645C11.0902 2.56066 13.6107 1.51633 16.292 1.51633C18.9732 1.51633 21.4937 2.56066 23.3901 4.45645C26.9257 7.99149 27.3611 14.6466 24.3093 18.7158Z" fill="white"/>
</g>
<defs>
<clipPath id="clip0">
<rect width="32" height="32" fill="white" transform="translate(0.291077 0.347534)"/>
</clipPath>
</defs>
</svg>
