<svg width="65" height="65" viewBox="0 0 65 65" fill="none" xmlns="http://www.w3.org/2000/svg">
<g clip-path="url(#clip0)">
<path d="M34.7799 0.067627C29.5185 0.067627 25.2276 4.35849 25.2276 9.61987C25.2276 14.8812 29.5185 19.1721 34.7799 19.1721C40.0412 19.1721 44.3321 14.8812 44.3321 9.61987C44.3321 4.35849 40.0412 0.067627 34.7799 0.067627ZM34.7799 2.45569C38.7507 2.45569 41.944 5.649 41.944 9.61987C41.944 13.5907 38.7507 16.784 34.7799 16.784C30.809 16.784 27.6157 13.5907 27.6157 9.61987C27.6157 5.649 30.809 2.45569 34.7799 2.45569ZM34.7799 4.84375C32.1492 4.84375 30.0037 6.98918 30.0037 9.61987C29.9923 10.4273 31.2092 10.4273 31.1978 9.61987C31.1978 7.63443 32.7944 6.03778 34.7799 6.03778C35.5873 6.04924 35.5873 4.83228 34.7799 4.84375ZM17.69 10.7986C13.4836 10.7986 10.0482 14.2341 10.0482 18.4404C10.0482 22.6467 13.4836 26.0822 17.69 26.0822C21.8963 26.0822 25.3317 22.6467 25.3317 18.4404C25.3317 14.2341 21.896 10.7986 17.69 10.7986ZM17.69 13.1867C20.6055 13.1867 22.9437 15.5248 22.9437 18.4404C22.9437 21.356 20.6055 23.6941 17.69 23.6941C14.7744 23.6941 12.4362 21.356 12.4362 18.4404C12.4362 15.5248 14.7741 13.1867 17.69 13.1867ZM51.631 15.8135C50.1943 15.8135 49.0041 17.0037 49.0041 18.4404C49.0041 19.8771 50.1943 21.0673 51.631 21.0673C53.0676 21.0673 54.2578 19.8771 54.2578 18.4404C54.2578 17.0037 53.0676 15.8135 51.631 15.8135ZM10.7799 28.6049C6.96924 28.6049 3.85449 31.7197 3.85449 35.5303C3.85449 39.3409 6.96924 42.4557 10.7799 42.4557C14.5905 42.4557 17.7052 39.3409 17.7052 35.5303C17.7052 31.7197 14.5905 28.6049 10.7799 28.6049ZM10.7799 30.993C13.3 30.993 15.3172 33.0102 15.3172 35.5303C15.3172 38.0504 13.3 40.0676 10.7799 40.0676C8.25975 40.0676 6.24255 38.0504 6.24255 35.5303C6.24255 33.0102 8.25975 30.993 10.7799 30.993ZM58.5411 32.4258C56.8408 32.4258 55.4366 33.83 55.4366 35.5303C55.4366 37.2306 56.8408 38.6348 58.5411 38.6348C60.2414 38.6348 61.6455 37.2306 61.6455 35.5303C61.6455 33.83 60.2414 32.4258 58.5411 32.4258ZM58.5411 34.8139C58.9509 34.8139 59.2575 35.1205 59.2575 35.5303C59.2575 35.9401 58.9509 36.2467 58.5411 36.2467C58.1313 36.2467 57.8246 35.9401 57.8246 35.5303C57.8246 35.1205 58.1313 34.8139 58.5411 34.8139ZM17.69 46.4108C14.4068 46.4108 11.7198 49.0978 11.7198 52.3809C11.7198 55.664 14.4068 58.3511 17.69 58.3511C20.9731 58.3511 23.6601 55.664 23.6601 52.3809C23.6601 49.0978 20.9728 46.4108 17.69 46.4108ZM51.631 48.56C49.535 48.56 47.8101 50.2849 47.8101 52.3809C47.8101 54.4769 49.535 56.2018 51.631 56.2018C53.727 56.2018 55.4519 54.4769 55.4519 52.3809C55.4519 50.2849 53.7272 48.56 51.631 48.56ZM17.69 48.7988C19.6823 48.7988 21.272 50.3886 21.272 52.3809C21.272 54.3733 19.6823 55.963 17.69 55.963C15.6976 55.963 14.1079 54.3733 14.1079 52.3809C14.1079 50.3886 15.6974 48.7988 17.69 48.7988ZM51.631 50.9481C52.4365 50.9481 53.0638 51.5754 53.0638 52.3809C53.0638 53.1864 52.4365 53.8138 51.631 53.8138C50.8255 53.8138 50.1981 53.1864 50.1981 52.3809C50.1981 51.5754 50.8257 50.9481 51.631 50.9481ZM34.7799 54.5154C32.1563 54.5154 30.0037 56.668 30.0037 59.2915C30.0037 61.915 32.1563 64.0676 34.7799 64.0676C37.4034 64.0676 39.556 61.915 39.556 59.2915C39.556 56.668 37.4034 54.5154 34.7799 54.5154ZM34.7799 56.9034C36.1129 56.9034 37.1679 57.9585 37.1679 59.2915C37.1679 60.6245 36.1129 61.6796 34.7799 61.6796C33.4469 61.6796 32.3918 60.6245 32.3918 59.2915C32.3918 57.9585 33.4469 56.9034 34.7799 56.9034Z" fill="#FF5100"/>
</g>
<defs>
<clipPath id="clip0">
<rect width="64" height="64" fill="white" transform="translate(0.75 0.067627)"/>
</clipPath>
</defs>
</svg>
