<svg width="204" height="46" viewBox="0 0 204 46" fill="none" xmlns="http://www.w3.org/2000/svg">
<path d="M191.603 20.9683L187.391 11.8127C186.933 10.8056 186.292 10.3936 185.33 10.3936H185.193C184.186 10.3936 183.545 10.8513 183.087 11.8127L178.875 20.9683C178.463 21.8839 178.738 22.7079 179.608 23.0283C180.386 23.303 181.073 23.1657 181.53 22.2501L182.492 20.2359C183.316 20.5105 184.415 20.6937 185.376 20.6937C186.429 20.6937 187.391 20.5563 188.123 20.2359L189.039 22.2501C189.451 23.1199 190.229 23.303 190.962 23.0283C191.694 22.7079 192.015 21.8381 191.603 20.9683ZM185.239 17.947C184.598 17.947 183.911 17.8554 183.407 17.7181L185.193 13.7354L186.978 17.7181C186.475 17.8554 185.88 17.947 185.239 17.947Z" fill="black"/>
<path d="M176.494 20.1448H175.716V11.7216C175.716 10.7603 174.983 10.2109 174.159 10.2109C173.335 10.2109 172.648 10.7603 172.648 11.7216V20.099H167.292V11.7216C167.292 10.7603 166.605 10.2109 165.735 10.2109C164.865 10.2109 164.179 10.7603 164.179 11.7216V21.6097C164.179 22.4337 164.728 23.1204 165.69 23.1204H174.983V24.4937C174.983 25.4551 175.67 26.0044 176.494 26.0044C177.364 26.0044 178.005 25.4551 178.005 24.4937V21.6555C178.005 20.6484 177.41 20.1448 176.494 20.1448Z" fill="black"/>
<path d="M160.974 20.1448H160.196V11.7216C160.196 10.7603 159.463 10.2109 158.639 10.2109C157.815 10.2109 157.128 10.7603 157.128 11.7216V20.099H151.772V11.7216C151.772 10.7603 151.085 10.2109 150.215 10.2109C149.345 10.2109 148.658 10.7603 148.658 11.7216V21.6097C148.658 22.4337 149.208 23.1204 150.169 23.1204H159.463V24.4937C159.463 25.4551 160.15 26.0044 160.974 26.0044C161.844 26.0044 162.485 25.4551 162.485 24.4937V21.6555C162.485 20.6484 161.889 20.1448 160.974 20.1448Z" fill="black"/>
<path d="M143.76 10.3486H143.622C142.707 10.3486 142.112 10.8064 141.471 11.722L136.434 18.8634V11.8593C136.434 10.898 135.794 10.3486 134.969 10.3486C134.1 10.3486 133.459 10.898 133.459 11.8593V21.3812C133.459 22.4341 134.145 23.1208 135.198 23.1208H135.336C136.297 23.1208 136.938 22.663 137.533 21.7474L142.569 14.606V21.5643C142.569 22.5256 143.21 23.075 144.034 23.075C144.859 23.075 145.499 22.5256 145.499 21.5643V12.0424C145.499 11.0353 144.859 10.3486 143.76 10.3486Z" fill="black"/>
<path d="M128.697 10.3486H120.044C119.037 10.3486 118.533 11.0353 118.533 11.8593V21.7474C118.533 22.7088 119.266 23.2581 120.09 23.2581C120.914 23.2581 121.601 22.7088 121.601 21.7474V13.3242H127.095V21.7016C127.095 22.663 127.782 23.2123 128.651 23.2123C129.476 23.2123 130.208 22.663 130.208 21.6559V11.8135C130.3 11.0353 129.704 10.3486 128.697 10.3486Z" fill="black"/>
<path d="M106.355 10.2568C102.647 10.2568 99.8085 13.0493 99.8085 16.7573C99.8085 20.5112 102.647 23.2579 106.355 23.2579C110.018 23.2579 112.902 20.4196 112.902 16.7116C112.902 12.9578 110.064 10.2568 106.355 10.2568ZM106.355 20.328C104.295 20.328 102.876 18.8174 102.876 16.7116C102.876 14.6515 104.341 13.1409 106.355 13.1409C108.416 13.1409 109.835 14.6515 109.835 16.7116C109.835 18.8174 108.461 20.328 106.355 20.328Z" fill="black"/>
<path d="M97.6566 20.1452H96.8783V11.8593C96.8783 11.0353 96.3289 10.3486 95.3674 10.3486H88.2711C87.447 10.3486 86.8519 10.898 86.8519 11.8593V13.8736C86.8519 15.2927 86.8061 16.4371 86.5772 17.6274C86.3483 18.7718 86.0278 19.5501 85.57 20.1452H85.2037C84.1965 20.1452 83.7386 20.7861 83.7386 21.6559V24.4941C83.7386 25.4555 84.4254 26.0048 85.2495 26.0048C86.1193 26.0048 86.7603 25.4555 86.7603 24.4941V23.1208H96.0542V24.4941C96.0542 25.4555 96.7409 26.0048 97.565 26.0048C98.4349 26.0048 99.0758 25.4555 99.0758 24.4941V21.6559C99.1674 20.7861 98.7096 20.1452 97.6566 20.1452ZM93.765 20.1452H88.729C89.0494 19.4585 89.2783 18.8634 89.5073 17.9936C89.6904 17.0323 89.782 16.0709 89.8277 14.8349L89.8735 13.37H93.8108V20.1452H93.765Z" fill="black"/>
<path d="M76.9173 10.2568C73.2089 10.2568 70.3704 13.0493 70.3704 16.7573C70.3704 20.5112 73.2089 23.2579 76.9173 23.2579C80.5799 23.2579 83.4642 20.4196 83.4642 16.7116C83.4642 12.9578 80.6257 10.2568 76.9173 10.2568ZM76.9173 20.328C74.8571 20.328 73.4378 18.8174 73.4378 16.7116C73.4378 14.6515 74.9028 13.1409 76.9173 13.1409C78.9775 13.1409 80.3967 14.6515 80.3967 16.7116C80.3967 18.8174 79.0233 20.328 76.9173 20.328Z" fill="black"/>
<path d="M68.1269 20.1452H67.3486V11.8593C67.3486 11.0353 66.7992 10.3486 65.8378 10.3486H58.7415C57.9174 10.3486 57.3222 10.898 57.3222 11.8593V13.8736C57.3222 15.2927 57.3222 16.4371 57.0475 17.6274C56.8186 18.7718 56.4981 19.5501 56.0403 20.1452H55.7198C54.7126 20.1452 54.2548 20.7861 54.2548 21.6559V24.4941C54.2548 25.4555 54.9415 26.0048 55.7656 26.0048C56.6355 26.0048 57.2764 25.4555 57.2764 24.4941V23.1208H66.5703V24.4941C66.5703 25.4555 67.257 26.0048 68.0811 26.0048C68.951 26.0048 69.5919 25.4555 69.5919 24.4941V21.6559C69.6377 20.7861 69.1799 20.1452 68.1269 20.1452ZM64.2354 20.1452H59.1993C59.5198 19.4585 59.7487 18.8634 59.9776 17.9936C60.1607 17.0323 60.2523 16.0709 60.2981 14.8349L60.3438 13.37H64.2812V20.1452H64.2354Z" fill="black"/>
<path d="M55.4909 37.8152C55.262 37.8152 55.1704 37.6779 55.1704 37.449C55.1704 37.3574 55.1704 37.2658 55.2162 37.1285L56.0403 32.3218C56.1318 31.9098 56.3608 31.7725 56.6355 31.7725C56.9101 31.7725 57.0933 31.864 57.1848 32.1387L58.4668 36.4876L59.7487 32.1387C59.8402 31.864 59.9776 31.7725 60.2981 31.7725C60.5728 31.7725 60.8017 31.9098 60.8932 32.3218L61.7173 37.1285C61.7631 37.2658 61.7631 37.3574 61.7631 37.449C61.7631 37.6779 61.6258 37.8152 61.4426 37.8152C61.2595 37.8152 61.0764 37.7694 61.0306 37.4947L60.3438 32.688L58.9246 37.4947C58.833 37.7236 58.6957 37.8152 58.5583 37.8152C58.3752 37.8152 58.2378 37.7694 58.1921 37.4947L56.7728 32.688L55.9029 37.4947C55.8571 37.7236 55.674 37.8152 55.4909 37.8152Z" fill="black"/>
<path d="M64.51 37.1742C65.4715 37.1742 65.7462 36.5791 66.0209 36.5791C66.1582 36.5791 66.2956 36.7165 66.2956 36.8996C66.2956 37.2658 65.3799 37.8151 64.51 37.8151C63.0908 37.8151 62.4498 36.7165 62.4498 35.5262C62.4498 34.336 63.1823 33.2373 64.4643 33.2373C65.6546 33.2373 66.3871 34.336 66.3871 35.3889C66.3871 35.6636 66.2956 35.8009 65.9751 35.8009H63.2281C63.1823 36.5791 63.686 37.1742 64.51 37.1742ZM64.4643 33.8782C63.5486 33.8324 63.2281 34.5649 63.1823 35.2515H65.6088C65.6088 34.6107 65.2426 33.8782 64.4643 33.8782Z" fill="black"/>
<path d="M72.3845 33.2373C72.5677 33.2373 72.705 33.3746 72.705 33.5578C72.705 33.6951 72.6134 33.7866 72.4761 33.924L70.8737 35.2973L72.6592 37.0369C72.8424 37.22 72.9339 37.3116 72.9339 37.4489C72.9339 37.632 72.7966 37.7694 72.6134 37.7694C72.4303 37.7694 72.293 37.6778 72.0641 37.4031L70.3243 35.7093V37.3116C70.3243 37.5862 70.187 37.7694 69.958 37.7694C69.7291 37.7694 69.5918 37.5862 69.5918 37.3116V35.7551L67.8978 37.4489C67.6231 37.6778 67.5316 37.8151 67.3027 37.8151C67.1195 37.8151 66.9822 37.6778 66.9822 37.4947C66.9822 37.3574 67.0737 37.2658 67.2569 37.0827L69.0424 35.3431L67.44 33.9698C67.3027 33.8324 67.2111 33.7409 67.2111 33.6035C67.2111 33.4204 67.3484 33.2831 67.5316 33.2831C67.6689 33.2831 67.7605 33.3289 67.9436 33.512L69.5918 35.0227V33.7409C69.5918 33.4662 69.7291 33.3289 69.958 33.3289C70.187 33.3289 70.3243 33.512 70.3243 33.7409V35.0227L72.0183 33.512C72.1556 33.3289 72.2472 33.2373 72.3845 33.2373Z" fill="black"/>
<path d="M73.7124 39.0046C73.4835 39.0046 73.3462 38.8673 73.3462 38.5926V37.4939C73.3462 37.2651 73.4835 37.1277 73.7124 37.1277H73.8498C74.0787 36.8988 74.2618 36.5784 74.3992 35.8459L74.8112 33.6944C74.857 33.4655 74.9486 33.3281 75.2233 33.3281H77.1461C77.3751 33.3281 77.5124 33.4655 77.5124 33.6486V37.0819H77.8787C78.1076 37.0819 78.2449 37.2193 78.2449 37.4482V38.5468C78.2449 38.8215 78.1076 38.9588 77.8787 38.9588C77.6498 38.9588 77.5124 38.8215 77.5124 38.5468V37.7228H74.0329V38.5468C74.0787 38.8673 73.9414 39.0046 73.7124 39.0046ZM74.7197 37.0819H76.8257V33.969H75.498L75.0859 36.1206C74.9944 36.5784 74.9028 36.853 74.7197 37.0819Z" fill="black"/>
<path d="M81.9074 33.2373C82.1363 33.2373 82.2279 33.3746 82.2279 33.5578C82.2279 33.6493 82.2279 33.7409 82.1821 33.7866L80.4881 38.5476C80.2592 39.1427 79.9388 39.5089 79.2978 39.5089C79.0231 39.5089 78.8858 39.3716 78.8858 39.1885C78.8858 38.9596 79.0231 38.9596 79.1605 38.9138C79.4352 38.868 79.6183 38.7765 79.8014 38.3645L80.1219 37.5405L78.7942 33.8324C78.7484 33.6951 78.7026 33.6035 78.7026 33.5578C78.7026 33.3746 78.84 33.2373 79.0231 33.2373C79.2062 33.2373 79.3436 33.3289 79.3894 33.5578L80.3966 36.5791L81.4038 33.6035C81.5869 33.3746 81.6785 33.2373 81.9074 33.2373Z" fill="black"/>
<path d="M83.464 37.8152C83.2351 37.8152 83.0978 37.6321 83.0978 37.3575V33.6952C83.0978 33.4205 83.2351 33.2832 83.464 33.2832C83.693 33.2832 83.8303 33.4205 83.8303 33.6952V35.1601H85.9363V33.6952C85.9363 33.4205 86.0736 33.2832 86.3025 33.2832C86.5315 33.2832 86.6688 33.4205 86.6688 33.6952V37.3575C86.6688 37.6321 86.5315 37.8152 86.3025 37.8152C86.0736 37.8152 85.9363 37.6321 85.9363 37.3575V35.7552H83.8303V37.3575C83.8303 37.6321 83.693 37.8152 83.464 37.8152Z" fill="black"/>
<path d="M91.3386 37.8151C91.2013 37.8151 91.0181 37.7236 91.0181 37.4489V37.1285C90.6976 37.5862 90.2856 37.8151 89.8278 37.8151C88.5917 37.8151 87.8591 36.7165 87.8591 35.5262C87.8591 34.336 88.5459 33.2373 89.8278 33.2373C90.3314 33.2373 90.6976 33.4662 91.0181 33.8324V33.6035C91.0181 33.3289 91.2013 33.2373 91.3386 33.2373C91.476 33.2373 91.6591 33.3289 91.6591 33.6035V37.4489C91.6591 37.7236 91.476 37.8151 91.3386 37.8151ZM89.7362 37.1742C90.6519 37.1742 90.9723 36.3044 90.9723 35.5262C90.9723 34.748 90.6519 33.8782 89.7362 33.8782C88.8206 33.8782 88.5001 34.748 88.5001 35.5262C88.5001 36.3044 88.8663 37.1742 89.7362 37.1742Z" fill="black"/>
<path d="M93.399 33.2373C93.6279 33.2373 93.7652 33.3746 93.7652 33.6493V33.8782C93.9941 33.4662 94.3604 33.2831 94.9556 33.2831C96.1459 33.2831 96.8327 34.3818 96.8327 35.572C96.8327 36.7622 96.1459 37.8609 94.9556 37.8609C94.3604 37.8609 93.9484 37.5405 93.7652 37.2658V39.2343C93.7652 39.4632 93.6279 39.6463 93.399 39.6463C93.1701 39.6463 93.0327 39.5089 93.0327 39.2343V33.6493C93.0327 33.4204 93.1701 33.2373 93.399 33.2373ZM94.9098 37.1742C95.8255 37.1742 96.1459 36.3045 96.1459 35.5262C96.1459 34.748 95.8255 33.8782 94.9098 33.8782C93.9941 33.8782 93.6737 34.748 93.6737 35.5262C93.6737 36.3045 93.9941 37.1742 94.9098 37.1742Z" fill="black"/>
<path d="M99.7168 33.2373C100.953 33.2373 101.685 34.336 101.685 35.5262C101.685 36.7165 100.999 37.8151 99.7168 37.8151C98.4807 37.8151 97.7482 36.7165 97.7482 35.5262C97.7482 34.336 98.4807 33.2373 99.7168 33.2373ZM99.7168 37.1742C100.632 37.1742 100.953 36.3044 100.953 35.5262C100.953 34.748 100.632 33.8782 99.7168 33.8782C98.8012 33.8782 98.4807 34.748 98.4807 35.5262C98.4807 36.3044 98.847 37.1742 99.7168 37.1742Z" fill="black"/>
<path d="M102.738 39.0046C102.51 39.0046 102.372 38.8673 102.372 38.5926V37.4939C102.372 37.2651 102.51 37.1277 102.738 37.1277H102.876C103.105 36.8988 103.288 36.5784 103.425 35.8459L103.837 33.6944C103.883 33.4655 103.975 33.3281 104.249 33.3281H106.172C106.401 33.3281 106.538 33.4655 106.538 33.6486V37.0819H106.905C107.134 37.0819 107.271 37.2193 107.271 37.4482V38.5468C107.271 38.8215 107.134 38.9588 106.905 38.9588C106.676 38.9588 106.538 38.8215 106.538 38.5468V37.7228H103.059V38.5468C103.105 38.8673 102.967 39.0046 102.738 39.0046ZM103.746 37.0819H105.852V33.969H104.524L104.112 36.1206C104.02 36.5784 103.883 36.853 103.746 37.0819Z" fill="black"/>
<path d="M108.553 37.8152C108.324 37.8152 108.187 37.6321 108.187 37.3575V33.6952C108.187 33.4205 108.324 33.2832 108.553 33.2832C108.782 33.2832 108.919 33.4205 108.919 33.6952V35.1601H111.025V33.6952C111.025 33.4205 111.162 33.2832 111.391 33.2832C111.62 33.2832 111.758 33.4205 111.758 33.6952V37.3575C111.758 37.6321 111.62 37.8152 111.391 37.8152C111.162 37.8152 111.025 37.6321 111.025 37.3575V35.7552H108.919V37.3575C108.919 37.6321 108.782 37.8152 108.553 37.8152Z" fill="black"/>
<path d="M116.428 37.8151C116.29 37.8151 116.107 37.7236 116.107 37.4489V37.1285C115.787 37.5862 115.375 37.8151 114.917 37.8151C113.681 37.8151 112.948 36.7165 112.948 35.5262C112.948 34.336 113.635 33.2373 114.917 33.2373C115.42 33.2373 115.787 33.4662 116.107 33.8324V33.6035C116.107 33.3289 116.29 33.2373 116.428 33.2373C116.565 33.2373 116.748 33.3289 116.748 33.6035V37.4489C116.748 37.7236 116.565 37.8151 116.428 37.8151ZM114.825 37.1742C115.741 37.1742 116.061 36.3044 116.061 35.5262C116.061 34.748 115.741 33.8782 114.825 33.8782C113.91 33.8782 113.589 34.748 113.589 35.5262C113.589 36.3044 113.955 37.1742 114.825 37.1742Z" fill="black"/>
<path d="M118.167 37.8155C117.984 37.8155 117.847 37.6782 117.847 37.495C117.847 37.3577 117.893 37.2662 118.076 37.1288L119.495 35.8928H119.129C118.35 35.8928 117.847 35.435 117.847 34.7026C117.847 33.9701 118.396 33.375 119.541 33.375H120.731C121.006 33.375 121.143 33.5123 121.143 33.7412V37.4493C121.143 37.6324 121.052 37.8613 120.777 37.8613C120.548 37.8613 120.411 37.7239 120.411 37.4493V35.9386L118.625 37.5866C118.442 37.7239 118.35 37.8155 118.167 37.8155ZM118.579 34.6568C118.579 35.0688 118.854 35.3435 119.495 35.3435H120.456V33.9701H119.541C118.946 33.9701 118.579 34.1532 118.579 34.6568Z" fill="black"/>
<path d="M126.683 33.2373C127.415 33.2373 127.873 33.512 127.873 33.7866C127.873 33.924 127.736 34.1071 127.553 34.1071C127.278 34.1071 127.141 33.8782 126.637 33.8782C125.721 33.8782 125.355 34.748 125.355 35.5262C125.355 36.3044 125.721 37.1742 126.637 37.1742C127.141 37.1742 127.278 36.9453 127.507 36.9453C127.69 36.9453 127.782 37.0369 127.782 37.2658C127.782 37.5405 127.37 37.8609 126.591 37.8609C125.218 37.8609 124.577 36.7622 124.577 35.572C124.577 34.3818 125.355 33.2373 126.683 33.2373Z" fill="black"/>
<path d="M130.712 37.1742C131.673 37.1742 131.948 36.5791 132.223 36.5791C132.36 36.5791 132.497 36.7165 132.497 36.8996C132.497 37.2658 131.582 37.8151 130.712 37.8151C129.292 37.8151 128.651 36.7165 128.651 35.5262C128.651 34.336 129.384 33.2373 130.666 33.2373C131.856 33.2373 132.589 34.336 132.589 35.3889C132.589 35.6636 132.497 35.8009 132.177 35.8009H129.43C129.384 36.5791 129.888 37.1742 130.712 37.1742ZM130.666 33.8782C129.75 33.8324 129.43 34.5649 129.384 35.2515H131.81C131.856 34.6107 131.49 33.8782 130.666 33.8782Z" fill="black"/>
<path d="M133.138 33.6486C133.138 33.4197 133.276 33.3281 133.504 33.3281H136.114C136.343 33.3281 136.48 33.4655 136.48 33.6486C136.48 33.8775 136.343 33.969 136.114 33.969H135.198V37.3566C135.198 37.6313 135.061 37.8144 134.832 37.8144C134.603 37.8144 134.466 37.6313 134.466 37.3566V33.969H133.55C133.276 33.969 133.138 33.8317 133.138 33.6486Z" fill="black"/>
<path d="M140.784 36.441C140.784 37.1277 140.28 37.7686 139.09 37.7686H137.762C137.488 37.7686 137.35 37.6313 137.35 37.4024V33.7401C137.35 33.4655 137.488 33.3281 137.716 33.3281C137.945 33.3281 138.083 33.5112 138.083 33.7401V35.1593H139.273C140.28 35.1135 140.784 35.6628 140.784 36.441ZM140.051 36.441C140.051 35.9833 139.777 35.7544 139.09 35.7544H138.037V37.0819H139.09C139.639 37.0819 140.051 36.9446 140.051 36.441Z" fill="black"/>
<path d="M144.538 37.8152C144.309 37.8152 144.172 37.6321 144.172 37.3575V33.6952C144.172 33.4205 144.309 33.2832 144.538 33.2832H147.331C147.56 33.2832 147.651 33.4205 147.651 33.6037V37.3575C147.651 37.6321 147.514 37.8152 147.285 37.8152C147.056 37.8152 146.919 37.6321 146.919 37.3575V33.9699H144.858V37.3575C144.904 37.6321 144.721 37.8152 144.538 37.8152Z" fill="black"/>
<path d="M149.299 37.8152C149.07 37.8152 148.979 37.6779 148.979 37.4032V33.6952C148.979 33.4205 149.116 33.2832 149.345 33.2832C149.574 33.2832 149.711 33.4205 149.711 33.6952V36.5335L151.772 33.5579C151.909 33.3748 152.001 33.2832 152.229 33.2832C152.413 33.2832 152.596 33.4205 152.596 33.6952V37.4032C152.596 37.6779 152.458 37.861 152.229 37.861C152.001 37.861 151.863 37.6779 151.863 37.4032V34.565L149.757 37.5864C149.574 37.7237 149.482 37.8152 149.299 37.8152Z" fill="black"/>
<path d="M153.878 37.449V33.6952C153.878 33.4205 154.015 33.2832 154.244 33.2832C154.473 33.2832 154.61 33.4663 154.61 33.6952V37.0828H156.67V33.6952C156.67 33.4205 156.808 33.2832 157.037 33.2832C157.266 33.2832 157.403 33.4663 157.403 33.6952V37.0828H157.769C157.998 37.0828 158.135 37.2201 158.135 37.449V38.5477C158.135 38.8224 157.998 38.9597 157.769 38.9597C157.54 38.9597 157.403 38.8224 157.403 38.5477V37.7237H154.244C153.969 37.7695 153.878 37.5864 153.878 37.449Z" fill="black"/>
<path d="M159.005 37.449V33.6952C159.005 33.4205 159.143 33.2832 159.372 33.2832C159.6 33.2832 159.738 33.4663 159.738 33.6952V37.0828H161.798V33.6952C161.798 33.4205 161.935 33.2832 162.164 33.2832C162.393 33.2832 162.53 33.4663 162.53 33.6952V37.0828H162.897C163.126 37.0828 163.263 37.2201 163.263 37.449V38.5477C163.263 38.8224 163.126 38.9597 162.897 38.9597C162.668 38.9597 162.53 38.8224 162.53 38.5477V37.7237H159.372C159.097 37.7695 159.005 37.5864 159.005 37.449Z" fill="black"/>
<path d="M165.918 37.1742C166.88 37.1742 167.155 36.5791 167.429 36.5791C167.567 36.5791 167.704 36.7165 167.704 36.8996C167.704 37.2658 166.788 37.8151 165.918 37.8151C164.499 37.8151 163.858 36.7165 163.858 35.5262C163.858 34.336 164.591 33.2373 165.873 33.2373C167.063 33.2373 167.796 34.336 167.796 35.3889C167.796 35.6636 167.704 35.8009 167.384 35.8009H164.637C164.591 36.5791 165.094 37.1742 165.918 37.1742ZM165.873 33.8782C164.957 33.8324 164.637 34.5649 164.591 35.2515H167.017C167.063 34.6107 166.697 33.8782 165.873 33.8782Z" fill="black"/>
<path d="M169.215 33.2373C169.444 33.2373 169.581 33.3746 169.581 33.6493V33.8782C169.81 33.4662 170.176 33.2831 170.771 33.2831C171.962 33.2831 172.648 34.3818 172.648 35.572C172.648 36.7622 171.962 37.8609 170.771 37.8609C170.176 37.8609 169.764 37.5405 169.581 37.2658V39.2343C169.581 39.4632 169.444 39.6463 169.215 39.6463C168.986 39.6463 168.849 39.5089 168.849 39.2343V33.6493C168.849 33.4204 168.986 33.2373 169.215 33.2373ZM170.726 37.1742C171.641 37.1742 171.962 36.3045 171.962 35.5262C171.962 34.748 171.641 33.8782 170.726 33.8782C169.81 33.8782 169.489 34.748 169.489 35.5262C169.489 36.3045 169.856 37.1742 170.726 37.1742Z" fill="black"/>
<path d="M174.159 37.8152C173.93 37.8152 173.839 37.6779 173.839 37.4032V33.6952C173.839 33.4205 173.976 33.2832 174.205 33.2832C174.434 33.2832 174.571 33.4205 174.571 33.6952V36.5335L176.631 33.5579C176.769 33.3748 176.86 33.2832 177.089 33.2832C177.272 33.2832 177.456 33.4205 177.456 33.6952V37.4032C177.456 37.6779 177.318 37.861 177.089 37.861C176.86 37.861 176.723 37.6779 176.723 37.4032V34.565L174.617 37.5864C174.434 37.7237 174.342 37.8152 174.159 37.8152Z" fill="black"/>
<path d="M179.058 37.8148C178.829 37.8148 178.738 37.6775 178.738 37.4028V33.6948C178.738 33.4201 178.875 33.2828 179.104 33.2828C179.333 33.2828 179.47 33.4201 179.47 33.6948V36.533L181.53 33.5574C181.668 33.3743 181.759 33.2828 181.988 33.2828C182.171 33.2828 182.354 33.4201 182.354 33.6948V37.4028C182.354 37.6775 182.217 37.8606 181.988 37.8606C181.759 37.8606 181.622 37.6775 181.622 37.4028V34.5646L179.516 37.5859C179.333 37.7233 179.241 37.8148 179.058 37.8148ZM179.653 31.6348C179.928 31.6348 180.065 32.0925 180.523 32.0925C180.981 32.0925 181.118 31.6348 181.393 31.6348C181.53 31.6348 181.668 31.7721 181.668 31.9552C181.668 32.4588 180.981 32.7792 180.523 32.7792C180.065 32.7792 179.379 32.4588 179.379 31.9552C179.424 31.7721 179.516 31.6348 179.653 31.6348Z" fill="black"/>
<path d="M27.8839 7.51074C37.132 7.51074 44.2741 13.9197 44.2741 23.3958C44.2741 32.9177 37.132 39.4182 27.8839 39.4182H17.4455C15.3395 39.4182 13.5997 38.0448 13.5997 35.6186V11.4934C13.5997 9.0672 15.3395 7.51074 17.4455 7.51074H27.8839Z" fill="#F35308"/>
<path d="M35.5298 20.3748C36.7202 20.5579 36.766 21.153 36.9949 21.565C37.2238 21.9312 37.6358 22.1143 38.0937 22.1143C38.9635 22.1143 39.5129 21.6566 39.5129 20.0085C39.5129 16.4378 37.2696 14.6983 34.8889 14.6983C32.9202 14.6983 32.1877 15.1103 30.3106 15.1103C28.9829 15.1103 27.8841 12.4551 26.4191 12.0889C25.7781 10.624 24.2673 10.4409 23.3517 11.1733C22.5276 10.6698 21.2457 10.9445 21.1541 11.86C20.1927 11.5854 18.9565 12.0889 19.5059 13.3249C17.171 13.3707 16.759 15.4307 18.3156 15.6596C16.3012 16.8041 17.2168 18.8183 18.9108 18.3605C19.0481 19.7797 19.5975 22.0686 19.5975 23.625C19.5975 25.8224 18.5903 26.3259 17.2626 26.3259C16.2096 26.3259 14.6072 25.9139 13.5542 25.6393V27.1499C14.653 27.4246 16.2554 27.7451 17.4457 27.7451C19.5975 27.7451 20.7878 26.5091 20.7878 24.0828C20.7878 21.153 19.8264 18.4979 20.1469 16.8041L20.0553 16.7125C19.0023 17.8112 18.2698 17.5365 18.224 17.1703C18.0867 16.4378 19.3228 15.5681 20.0553 15.2476C20.0553 15.2018 20.1011 15.1561 20.1011 15.1103C19.4144 15.2018 18.6361 15.1103 18.6361 14.6525C18.5903 14.1032 19.7348 13.5996 21.2457 13.6911C21.2915 13.6454 21.2915 13.6454 21.3372 13.5996C21.2457 13.5538 21.1541 13.508 21.0168 13.4623C20.6505 13.2791 20.5589 12.9129 20.6505 12.684C20.7878 12.4094 21.1999 12.3178 21.5662 12.3178C22.1155 12.3178 22.5734 12.4551 22.8938 12.5925C22.9396 12.5925 22.9854 12.5467 22.9854 12.5467C22.8481 12.4551 22.7565 12.3636 22.7107 12.2262C22.6192 12.0889 22.5734 11.86 22.7565 11.7227C22.9854 11.5396 23.489 11.4938 23.9926 11.9516C24.0842 12.0431 24.1758 12.1347 24.2673 12.2262C24.3131 12.2262 24.3589 12.2262 24.4505 12.1805C24.3589 12.0431 24.3131 11.9516 24.2673 11.8142C24.2215 11.6311 24.3131 11.4938 24.4962 11.4022C24.7252 11.3565 24.9541 11.448 25.0914 11.6311C25.2288 11.86 25.3203 12.1347 25.3661 12.3178C24.3131 12.4551 21.5204 13.096 21.5204 16.4378C21.5204 19.7339 24.2673 23.1672 24.2673 28.2944C24.2673 30.1255 23.8553 32.0024 22.1613 34.154C20.8794 36.0309 18.8192 37.6332 15.6144 38.9607C16.1638 39.2354 16.8048 39.3727 17.4457 39.3727H18.5903C21.2915 37.8621 22.5734 36.5345 23.489 35.2985C25.2745 36.0767 26.9685 36.4429 28.5251 36.4429C31.4094 36.4429 33.8817 35.1154 35.1636 32.7349C36.4913 31.9567 37.3611 30.3086 37.4069 29.1184C38.231 28.0655 38.3684 26.7837 38.1394 25.8682C38.0937 25.6393 37.9105 25.6393 37.5901 25.8224C34.9804 27.3788 32.4624 28.1113 30.0359 28.1113C28.5709 28.1113 27.0601 27.8824 25.4577 27.4246C25.3661 25.7308 24.9998 24.2659 24.8625 23.3961C24.6794 22.2517 24.9541 21.3819 26.1902 21.3819C27.1058 21.3819 28.8456 21.6108 30.1733 22.2517C31.5468 22.8468 32.3251 24.0828 32.9202 24.0828C33.1491 24.0828 33.3781 23.9455 33.3781 23.4419C33.3781 22.4806 33.0118 20.8783 32.5998 20.329C33.9732 20.329 34.9804 20.329 35.5298 20.3748ZM25.595 29.1642C27.0601 29.5762 29.0745 29.8051 30.7227 29.6677C33.6985 29.4389 35.8961 28.3402 37.1322 27.562C36.3997 29.4389 33.5612 30.6291 30.86 30.9495C30.86 31.0869 30.8142 31.2242 30.8142 31.3615C32.8744 31.27 34.7973 30.5833 35.6672 29.9882C35.1636 31.8651 32.6455 32.5976 30.4022 32.6891C30.3564 32.8264 30.2648 32.9638 30.2191 33.1011C31.5468 33.1469 32.8287 32.8722 33.5612 32.6433C32.8744 33.9251 30.5395 34.978 28.1588 34.978C26.9685 34.978 25.5035 34.7491 24.2673 34.154C25.1372 32.4602 25.5035 30.7664 25.595 29.1642ZM31.7757 21.977C31.6841 22.0686 31.5925 21.9312 31.5468 21.8855C29.3492 19.8712 21.6577 21.0157 22.2529 15.9343C22.3902 14.744 23.1685 13.5538 24.542 13.2334C24.4505 13.3707 24.3589 13.5538 24.3131 13.8285L24.542 13.8743C25.183 12.7756 26.8311 12.8214 26.9685 13.92C26.9685 13.92 28.2504 15.2476 28.5251 15.5223C28.6167 15.5681 28.6167 15.6138 28.5709 15.7054C28.5251 15.7512 28.3878 15.7512 28.2046 15.7054L28.1588 15.8427C28.4335 16.0716 29.3034 16.2547 30.8142 16.1632C31.2263 16.1174 31.7299 16.1174 32.2793 16.0258C31.5925 16.7125 31.1347 17.6281 30.86 18.6352C30.8142 18.7725 30.7685 18.9099 30.448 18.9556C27.5179 19.1845 25.0456 18.8641 24.2215 17.2619C24.13 17.0787 24.13 16.9414 24.3131 16.8498C24.4962 16.7583 24.7252 16.7583 24.9998 16.7583L25.0456 16.621C24.5878 16.3463 23.8095 16.3005 23.3975 16.7583C23.1228 17.0787 23.1685 17.5365 23.4432 17.9485L23.5806 17.9027C23.5806 17.8112 23.5348 17.7196 23.5348 17.6281C23.5348 17.5823 23.5806 17.5823 23.5806 17.5365C23.6264 17.5365 23.6264 17.5365 23.6722 17.5823C24.6794 19.093 26.6022 19.5965 28.342 19.9628C30.9058 20.5121 31.8672 21.7023 31.7757 21.977ZM31.7299 18.9099C31.5468 18.9099 31.4552 18.7725 31.501 18.681C31.8214 17.7196 32.0961 16.9872 32.6455 16.4378C33.1949 15.8427 33.7901 15.6596 35.1636 15.6596C36.9949 15.6596 38.5515 17.5365 38.5515 20.1459C38.5515 20.5121 38.0479 20.5121 37.8648 20.1917C37.2238 19.093 36.3997 18.9099 35.0262 18.8183C34.019 18.7725 32.7829 18.8641 31.7299 18.9099ZM25.8697 14.5152C26.0071 14.744 26.0071 14.9729 25.8697 15.0645C25.7782 15.1103 25.6408 15.1103 25.5035 14.9729H25.4577C25.5035 15.0645 25.5035 15.1561 25.5492 15.2018C25.8697 15.7969 26.4191 16.209 26.7854 16.0716C27.1974 15.9343 27.2432 15.3392 26.9685 14.744C26.648 14.1489 26.0986 13.7369 25.7324 13.8743C25.595 13.92 25.5035 14.0116 25.4577 14.1489L25.5035 14.1947C25.595 14.1489 25.7782 14.332 25.8697 14.5152ZM15.9807 30.858C15.4771 30.8122 14.4699 30.858 13.6 30.858V31.8651C14.6988 31.6362 15.8433 31.4531 15.8433 31.4531L15.9807 30.858Z" fill="black"/>
<path d="M37.178 27.5615C35.9419 28.3398 33.6985 29.4842 30.7684 29.6673C29.0745 29.8047 27.06 29.5758 25.595 29.1638C25.595 29.6673 25.5034 30.1709 25.4576 30.6744C26.2817 30.9033 27.7468 31.178 29.8528 31.2238C29.7612 31.7731 29.166 33.7416 27.701 34.9776C30.4022 35.0692 32.8286 34.062 33.5612 32.6887C32.8286 32.9176 31.5467 33.1922 30.219 33.1465C30.3106 33.0091 30.3564 32.8718 30.4022 32.7345C32.6913 32.6429 35.1635 31.8647 35.6672 30.0335C34.7973 30.6287 32.8286 31.3153 30.8142 31.4069C30.86 31.2696 30.86 31.1322 30.86 30.9949C33.6069 30.6287 36.3997 29.4842 37.178 27.5615Z" fill="white"/>
<path d="M25.6866 13.8737C26.0987 13.7364 26.6481 14.1484 26.9228 14.7435C27.2432 15.3386 27.1517 15.9338 26.7396 16.0711C26.3734 16.2084 25.7782 15.8422 25.5035 15.2013C25.4577 15.1098 25.4119 15.0182 25.4119 14.9724H25.4577C25.5951 15.1098 25.7324 15.1098 25.824 15.064C25.9613 14.9724 25.9613 14.7435 25.824 14.5146C25.7324 14.3315 25.5493 14.1484 25.4119 14.1942L25.3662 14.1484C25.4577 14.0111 25.5493 13.9195 25.6866 13.8737ZM28.4336 19.9622C26.6939 19.596 24.771 19.0925 23.7638 17.5818C23.7638 17.536 23.718 17.536 23.6722 17.536C23.6264 17.536 23.6264 17.5818 23.6264 17.6276C23.6264 17.7191 23.6264 17.8107 23.6722 17.9022L23.5349 17.948C23.2602 17.5818 23.2144 17.124 23.4891 16.7578C23.8553 16.3 24.6336 16.3458 25.1372 16.6204L25.0915 16.7578C24.8626 16.712 24.5879 16.712 24.4047 16.8493C24.2674 16.9409 24.2216 17.0782 24.3132 17.2613C25.183 18.8178 27.6095 19.184 30.5396 18.9551C30.8601 18.9093 30.9059 18.772 30.9516 18.6347C31.2263 17.6276 31.6842 16.712 32.3709 16.0253C31.8215 16.1169 31.3179 16.1169 30.9059 16.1627C29.395 16.2542 28.5252 16.0711 28.2505 15.8422L28.2962 15.7049C28.4794 15.7506 28.6167 15.7506 28.6625 15.7049C28.7083 15.6591 28.6625 15.6133 28.6167 15.5218C28.342 15.2471 27.0601 13.9195 27.0601 13.9195C26.9228 12.8208 25.2746 12.7751 24.6336 13.8737L24.3132 13.828C24.3589 13.5991 24.4963 13.3702 24.5421 13.2328C23.1686 13.5533 22.3903 14.7435 22.2529 15.9338C21.6578 21.0151 29.3492 19.8249 31.5468 21.8849C31.5926 21.9307 31.6842 22.068 31.7757 21.9765C31.8673 21.7018 30.9059 20.5116 28.4336 19.9622Z" fill="white"/>
</svg>
