<svg width="112" height="90" viewBox="0 0 112 90" fill="none" xmlns="http://www.w3.org/2000/svg">
<g clip-path="url(#clip0)">
<path d="M29.3895 84.9839L30.1161 61.7119C30.1161 61.7119 28.1544 62.1483 27.3552 63.53C26.6649 64.73 26.2653 81.1658 26.7013 82.7294C27.1009 84.3294 29.3895 84.9839 29.3895 84.9839Z" fill="black"/>
<path d="M101.719 16.7678C97.1781 13.0224 91.8378 10.9134 86.3886 10.3316C86.4612 8.25894 86.6065 6.11356 86.8608 3.82272C87.0425 2.2955 87.2604 1.20463 87.1878 1.1319C86.4976 0.295565 85.4077 0.22284 84.7175 0.259202C83.4823 0.331927 82.2108 1.4228 82.3561 3.05911C82.3561 3.05911 82.1382 6.80444 82.1018 10.1862C77.7788 10.3316 73.4557 11.4225 69.4959 13.386C66.0448 15.0951 61.3584 18.4768 61.3221 20.9494C61.2858 23.4221 61.976 24.4039 62.7752 24.6584C63.3201 24.8402 65.5725 20.5858 71.4213 17.7132C74.6545 16.1132 78.36 15.2042 82.2108 15.1314C82.5014 18.0041 82.8284 21.6403 83.9909 25.8947C84.6085 28.2219 85.771 31.5673 87.3331 34.149C86.6792 34.949 85.5893 36.9853 84.7175 37.2762C84.4268 37.3853 83.9546 37.5307 83.3733 37.3853C82.6468 37.2034 82.3198 36.5853 82.1745 36.3308C81.4843 35.0581 81.4116 33.7127 81.5569 31.1309C81.6296 30.1128 82.3561 28.5856 82.3198 28.5492C82.0292 28.2583 81.3753 28.1492 80.9757 28.1492C80.2128 28.1492 78.469 28.6219 78.1784 29.7128C77.6335 31.8945 77.8878 34.4399 77.8514 36.5126C77.8151 38.2216 77.7788 40.2579 76.9069 41.3488C76.3983 42.0033 75.4901 42.476 74.6545 42.3669C72.3295 42.0397 71.603 39.3125 71.385 37.7489C70.9127 34.5126 70.9854 31.9673 72.3659 28.5492C72.4022 28.4765 72.2206 28.3674 71.9299 28.2946C70.7674 27.8583 67.4979 28.8764 67.3889 30.2946C67.2073 32.7672 67.2073 36.6944 68.2608 39.8215C68.1155 41.9306 66.0448 45.6759 65.1729 45.8577C64.192 46.0759 63.5381 44.6214 63.3565 44.076C62.5209 41.4942 62.9932 37.6762 62.3029 35.1672C61.5037 32.2582 58.1979 31.24 55.9818 32.04C53.4025 32.9854 52.1674 36.5126 51.6224 39.7125C51.4771 39.2034 51.4408 38.3671 51.3318 36.6944C51.2592 35.3126 51.3681 34.0036 51.3318 34.0036C49.5517 33.5308 47.8443 34.6217 47.8806 35.858C47.8806 36.258 47.917 36.658 47.917 37.058C47.1177 38.1852 46.1005 39.3488 44.2478 39.2761C43.7755 38.1489 43.0126 36.8398 42.1044 36.0399C40.724 34.9126 38.3263 34.0763 36.9458 35.6762C35.2384 37.6398 37.1275 39.8943 39.0892 40.8397C40.2517 41.3851 41.8138 41.5306 42.831 41.5306C43.2669 44.0032 43.4486 47.3122 42.3224 49.7121C41.5958 51.2757 40.6513 51.9666 39.7068 52.4393C39.2345 52.6575 38.3263 52.7302 37.6724 52.6939C37.0548 52.6211 36.5099 52.3666 35.965 51.9666C33.4946 50.1848 32.9497 45.4941 35.2021 42.6215C35.2747 42.5487 35.2021 42.2215 33.8942 42.1124C32.8771 42.0033 31.4603 42.8396 31.1333 43.9305C30.1524 47.2395 30.3704 50.3303 32.1505 53.3847C32.2595 53.5666 32.2595 53.6756 32.3685 53.8575C35.6017 53.0575 39.0529 53.312 41.6685 55.2392C44.7201 52.9848 45.5556 49.5303 45.483 46.2577C45.4466 44.8759 45.0107 42.7305 44.7927 41.3851C44.8654 41.3488 46.1005 41.167 46.8271 40.6942C47.372 40.3306 47.7716 39.967 48.1349 39.6034C48.4982 43.5305 49.1884 47.094 49.4064 48.6576C49.697 50.7666 53.5115 49.8212 53.2572 48.1849C52.8576 45.6395 52.349 44.7668 52.4943 43.1305C52.7486 39.8943 53.9111 34.7308 56.1635 34.8399C57.6166 34.9126 57.9799 38.6943 58.1615 40.6215C58.3795 43.0942 59.4693 47.6395 62.1213 48.7667C65.3908 50.1485 67.6069 46.9122 69.3143 43.1305C69.3869 42.9851 69.4959 42.7669 69.6049 42.5124C70.9491 44.3305 73.0198 45.2759 76.2167 44.3669C77.9967 43.8578 79.9221 41.9669 80.1038 38.0398C80.2854 38.2943 80.903 38.8398 81.1573 39.0216C84.1362 41.276 86.4976 40.4397 88.423 37.4216C88.5683 37.1671 88.7499 36.7671 88.8952 36.3308C89.0042 36.4398 89.0769 36.5489 89.1858 36.6217C91.1476 38.5125 94.4898 37.858 96.1609 36.5853C97.9773 35.2035 98.4132 33.0581 98.7038 31.6036C98.9218 30.5855 97.5413 30.1128 97.1781 31.1309C96.9964 31.6764 96.1245 34.2581 95.2527 34.7672C93.7995 35.6399 92.2374 34.8763 91.1839 33.7127C90.5663 33.0218 89.6218 31.6036 89.1858 30.5128C88.2413 28.1128 87.769 26.7674 87.4058 24.9129C86.8245 22.0403 86.4612 18.8768 86.3886 15.4223C91.2566 16.1496 96.2335 18.295 100.738 22.2585C107.35 28.0765 110.837 39.167 107.241 51.8575C106.26 55.3847 102.119 60.8027 99.0308 59.5664C96.4878 58.5482 97.3234 52.8757 97.832 49.8939C97.9409 49.2394 95.1437 47.9304 93.5452 49.3849C91.9831 50.8757 92.0558 54.7665 92.4917 56.5119C92.9277 58.2573 94.5624 63.0208 92.5644 63.4571C89.5491 64.1117 87.1151 59.8936 87.0061 56.2574C86.8608 51.8212 87.7327 47.9667 89.0405 46.5486C89.0405 46.5486 86.6429 43.8214 84.8265 46.0032C83.8456 47.2031 81.0483 52.9484 84.2815 60.4754C83.9183 64.6207 82.6831 68.9115 78.687 69.166C73.7827 69.5297 73.7463 62.839 73.7463 62.839C73.7463 62.839 77.6335 62.4754 80.1401 58.33C83.0464 53.5666 80.8303 50.7666 79.1229 50.0394C77.6698 49.4576 74.0006 49.3485 71.385 52.6939C68.2608 56.6574 68.0065 62.839 69.5686 65.748C69.5686 65.7843 69.6049 65.7843 69.6049 65.8207C69.4596 66.9479 69.0237 69.0206 67.9338 71.0205C66.953 72.8023 65.2819 74.1113 63.6471 73.2023C62.8115 72.7296 62.0123 71.2387 61.758 69.166C61.3947 66.1843 61.6854 62.2572 61.976 60.3663C62.2666 58.4391 62.6299 56.7301 62.6299 56.6937C62.3393 56.221 61.1404 56.0028 60.2686 56.3665C57.2896 57.5664 58.5975 61.0572 54.783 60.1118C54.7103 60.1118 55.1099 59.7118 55.4732 58.8755C56.2724 57.0573 55.7275 54.2938 52.6033 54.4756C50.9322 54.5847 47.917 57.6028 51.5135 61.4936C51.5135 61.4936 49.0068 63.8208 46.6455 64.1844C45.047 63.7117 42.8673 63.6026 40.2517 64.7298C38.3263 65.5662 41.9228 63.239 42.4314 59.9663C42.6494 58.3664 42.2134 56.8755 40.9783 56.1119C36.4009 53.312 29.7165 56.1483 27.1735 57.821C24.5942 59.4936 20.5981 62.8753 19.8352 68.2933C19.4356 71.0933 22.2329 70.0751 22.2329 70.0751C22.2329 70.0751 22.2692 68.8024 22.5235 67.857C23.2864 64.8753 27.8638 58.8391 34.6935 58.0391C39.7068 57.4573 38.7622 62.9117 37.1638 65.0571C36.1103 66.4752 34.4028 68.0024 34.3665 68.657C34.3302 69.7115 34.4028 72.2205 36.0376 70.1478C37.5271 68.2933 39.9247 66.0389 42.1408 66.0389C45.5193 66.0389 47.1177 70.5478 46.1005 74.3295C44.9744 78.4748 41.1599 83.2383 36.6552 85.7473C32.1505 88.2563 26.7739 86.9473 24.7759 84.4746C24.6669 84.3292 22.6325 85.5291 23.1774 87.1291C24.4126 90.7653 33.4583 90.9471 40.5423 86.9109C43.1943 85.4201 45.6646 83.202 46.9361 81.5293C54.1654 72.3296 50.8595 67.457 49.8424 66.0752C49.7334 65.9298 49.4791 65.6752 49.1158 65.3843C51.2955 64.1844 52.4943 62.8753 53.1482 62.2935C53.2572 62.1845 55.4732 63.1662 58.3068 61.3845C59.1787 60.839 57.0717 73.8932 60.7408 77.0567C62.6299 78.693 65.3545 77.7476 67.3526 75.7113C69.7866 73.2386 70.7674 70.0387 71.2397 67.9297C71.385 68.0752 71.5303 68.257 71.712 68.4388C71.712 68.4388 75.2721 72.0387 80.6487 70.4024C84.3905 69.2751 85.3714 64.2935 85.5893 62.2572C85.6257 62.2935 85.6257 62.3299 85.662 62.3299C89.8034 66.4752 93.1093 65.348 94.0175 64.8026C95.7613 63.748 95.7249 60.9118 95.7249 60.9118C95.7249 60.9118 99.2124 62.8026 102.591 61.239C107.168 59.13 109.13 55.0938 110.184 51.7121C115.088 35.3853 109.566 23.2039 101.719 16.7678ZM39.8158 38.5125C39.1982 38.0761 38.5443 37.4216 39.2345 36.658C39.5978 36.258 40.5423 36.5853 41.1962 37.3125C41.7775 37.9671 42.1771 38.8761 42.3224 39.0216C42.3951 39.1307 40.4333 38.9125 39.8158 38.5125ZM53.2572 59.3482C53.2572 59.3482 52.0947 58.33 51.9857 57.2028C51.8767 56.1119 52.7123 55.7847 53.3299 55.9301C55.1826 56.4392 53.2572 59.3482 53.2572 59.3482ZM75.4901 53.2393C77.1975 51.5666 78.1421 52.3666 78.469 52.7666C78.9413 53.312 79.6315 56.5846 77.3065 58.8755C74.6909 61.4208 73.5284 60.839 73.5284 60.839C73.5284 60.839 72.9471 55.7483 75.4901 53.2393Z" fill="black"/>
<path d="M7.30197 68.6573C6.82971 68.621 5.81252 68.2937 5.34025 68.1846C5.26759 68.1846 4.32306 70.4391 6.1758 71.13C9.59065 72.439 14.495 70.5118 17.8008 68.5119C17.9098 67.2028 18.4547 65.8574 19.0723 64.6211C18.0915 65.4574 17.0016 66.2574 15.3668 66.9847C13.2961 67.9301 10.7532 68.9482 7.30197 68.6573Z" fill="black"/>
<path d="M18.5637 37.2764C24.7395 40.9854 27.2825 50.5123 23.8677 57.5667C23.7587 57.7485 23.5407 58.3303 23.4317 58.7666C23.8677 58.3666 24.3036 58.003 24.7395 57.6757C24.8848 57.5303 25.0302 57.4212 25.1755 57.2758C26.2653 56.4394 27.2099 55.7849 28.4813 55.1667C30.3704 49.7487 29.4985 39.8945 23.5407 35.4219C19.2903 32.222 13.7321 31.8948 9.73597 32.9493C5.6672 34.0402 2.03438 35.9674 0.181636 40.2218C-0.581257 41.9308 1.52578 43.4217 1.56211 43.3126C1.85274 42.549 2.21602 41.8217 2.86993 40.8399C5.55822 36.7673 8.46448 35.931 10.8258 35.6401C13.8411 35.2401 15.9118 35.6765 18.5637 37.2764Z" fill="black"/>
<path d="M7.01134 40.0391C6.21211 41.0208 7.77423 63.9655 8.28283 65.7837C8.57345 66.8745 11.1528 66.3291 11.1164 65.6019C10.8985 58.9112 10.0629 38.1846 10.0629 38.1846C10.0629 38.1846 8.02853 38.8027 7.01134 40.0391Z" fill="black"/>
<path d="M88.7862 77.7843C89.3312 77.2025 89.5491 76.4025 89.2585 75.2389C88.4956 72.2572 84.3905 73.8208 82.5015 74.3662C82.1382 74.4753 81.9929 74.7662 81.9929 75.0571C81.9929 75.1662 81.9929 75.2389 81.9929 75.348C82.5741 78.0388 83.119 80.7296 83.664 83.3841C83.664 83.5295 83.7003 83.675 83.7729 83.8204C83.8819 84.2204 84.2452 84.3295 84.6085 84.2204C86.9698 83.7477 91.3292 83.3114 90.7116 79.8569C90.53 78.657 89.7671 78.0388 88.7862 77.7843ZM84.0636 77.9661C83.8819 77.1661 83.7366 76.3661 83.555 75.5662C84.8628 75.0935 87.0062 74.3298 87.7691 75.4207C89.0769 77.2752 85.662 77.7479 84.0636 77.9661ZM85.0444 82.7296C84.8265 81.6387 84.6085 80.5478 84.3542 79.4933C85.7347 79.1661 89.1495 78.2206 89.3312 80.4024C89.4765 82.1114 86.7155 82.475 85.0444 82.7296Z" fill="black"/>
<path d="M94.7804 71.7842C94.6714 71.6024 94.5261 71.5297 94.3808 71.4933C93.9812 71.3115 93.4726 71.4206 93.3999 71.9661C92.8913 75.166 92.4191 78.3658 91.9105 81.5657C91.7652 82.4748 93.182 82.8384 93.3273 81.893C93.4726 81.0567 93.5816 80.2203 93.7269 79.384C95.0347 79.1658 96.3425 78.9113 97.6503 78.584C98.0499 79.2022 98.4496 79.8203 98.8492 80.4385C99.3578 81.2385 100.593 80.4749 100.084 79.6749C98.3406 76.9841 96.5605 74.4023 94.7804 71.7842ZM93.9449 77.8931C94.1265 76.6205 94.3445 75.3114 94.5261 74.0387C95.2527 75.1296 96.0156 76.2205 96.7421 77.3113C95.8339 77.5295 94.8894 77.7113 93.9449 77.8931Z" fill="black"/>
<path d="M106.914 74.9113C106.696 74.8022 106.442 74.6931 106.187 74.6204C107.023 73.8568 107.495 72.8386 107.168 71.6386C106.187 68.0024 102.082 69.4933 99.5394 70.1478C99.0308 70.2932 98.9218 70.8023 99.1398 71.1659C99.8664 73.9658 100.593 76.7658 101.32 79.5657C101.537 80.4747 102.954 80.0384 102.7 79.1293C102.482 78.2566 102.264 77.3839 102.01 76.4749C102.01 76.4749 102.01 76.4749 102.046 76.4749C102.518 76.4021 103.027 76.2567 103.536 76.0749C104.371 75.8931 105.207 75.8203 106.042 76.0749C106.914 76.3294 107.168 77.3476 107.35 78.1112C107.568 79.0202 108.948 78.5839 108.73 77.6748C108.44 76.5839 108.004 75.5294 106.914 74.9113ZM103.245 74.6931C102.7 74.8022 102.191 74.9476 101.719 75.0931H101.683C101.356 73.8204 101.029 72.5841 100.702 71.3114C102.409 70.7659 104.989 69.8932 105.715 71.8205C106.26 73.2022 104.734 74.184 103.245 74.6931Z" fill="black"/>
</g>
<defs>
<clipPath id="clip0">
<rect width="112" height="89.7062" fill="white" transform="translate(0 0.222656)"/>
</clipPath>
</defs>
</svg>
